<svg id="Layer_1" data-name="Layer 1" xmlns="http://www.w3.org/2000/svg" xmlns:xlink="http://www.w3.org/1999/xlink" viewBox="0 0 2695.33 2193.7"><defs><style>.cls-1{fill:url(#linear-gradient);}.cls-2{fill:url(#linear-gradient-2);}.cls-3{fill:url(#linear-gradient-3);}.cls-4{fill:url(#linear-gradient-4);}.cls-5{fill:url(#radial-gradient);}.cls-6{fill:#fff;}.cls-7{fill:url(#radial-gradient-2);}.cls-8{fill:#200200;}.cls-9{fill:url(#linear-gradient-5);}.cls-10{fill:url(#linear-gradient-6);}.cls-11{fill:url(#linear-gradient-7);}.cls-12{fill:url(#linear-gradient-8);}.cls-13{fill:#03053f;}.cls-14{fill:#f8c694;}.cls-15{fill:url(#linear-gradient-9);}.cls-16{fill:url(#linear-gradient-10);}.cls-17{fill:url(#linear-gradient-11);}.cls-18{fill:url(#linear-gradient-12);}.cls-19{fill:url(#linear-gradient-13);}.cls-20{fill:url(#linear-gradient-14);}.cls-21{fill:url(#radial-gradient-3);}.cls-22{fill:#484848;}.cls-23{fill:url(#linear-gradient-15);}.cls-24{fill:url(#linear-gradient-16);}.cls-25{fill:url(#linear-gradient-17);}.cls-26{fill:url(#linear-gradient-18);}.cls-27{fill:url(#linear-gradient-19);}.cls-28{fill:#ffc2b0;}.cls-29{fill:url(#linear-gradient-20);}.cls-30{fill:url(#linear-gradient-21);}.cls-31{fill:#ccc9ca;}.cls-32{fill:url(#linear-gradient-22);}.cls-33{fill:url(#linear-gradient-23);}.cls-34{fill:url(#linear-gradient-24);}.cls-35{fill:url(#linear-gradient-25);}.cls-36{fill:url(#linear-gradient-26);}.cls-37{fill:url(#linear-gradient-27);}.cls-38{fill:url(#linear-gradient-28);}.cls-39{fill:url(#linear-gradient-29);}.cls-40{fill:url(#linear-gradient-30);}.cls-41{fill:url(#linear-gradient-31);}.cls-42{fill:url(#linear-gradient-32);}.cls-43{fill:url(#linear-gradient-33);}.cls-44{fill:url(#linear-gradient-34);}.cls-45{fill:url(#linear-gradient-35);}.cls-46{fill:#2d2d27;}</style><linearGradient id="linear-gradient" x1="232.33" y1="1086.95" x2="2387.98" y2="1086.95" gradientUnits="userSpaceOnUse"><stop offset="0" stop-color="#fff2ef"/><stop offset="1" stop-color="#fec9bc"/></linearGradient><linearGradient id="linear-gradient-2" x1="850.1" y1="1218.25" x2="1628.89" y2="1218.25" gradientUnits="userSpaceOnUse"><stop offset="0" stop-color="#fd6d4a"/><stop offset="1" stop-color="#ffb9a8"/></linearGradient><linearGradient id="linear-gradient-3" x1="1764.62" y1="930.25" x2="713.57" y2="1489.1" gradientUnits="userSpaceOnUse"><stop offset="0" stop-color="#fd6d4a"/><stop offset="0.28" stop-color="#fe8a6e"/><stop offset="0.58" stop-color="#fea48e"/><stop offset="0.83" stop-color="#ffb3a1"/><stop offset="1" stop-color="#ffb9a8"/></linearGradient><linearGradient id="linear-gradient-4" x1="1239.5" y1="526.63" x2="1239.5" y2="493.17" gradientUnits="userSpaceOnUse"><stop offset="0" stop-color="#22d6a8"/><stop offset="1" stop-color="#148366"/></linearGradient><radialGradient id="radial-gradient" cx="1391.27" cy="804.65" r="154.38" gradientTransform="translate(1964.3 -696.93) rotate(80.84)" xlink:href="#linear-gradient-4"/><radialGradient id="radial-gradient-2" cx="1303.35" cy="1222.89" r="141.74" gradientTransform="translate(2303.28 -258.43) rotate(80.84)" xlink:href="#linear-gradient-4"/><linearGradient id="linear-gradient-5" x1="1799.51" y1="1825.83" x2="1915.51" y2="1825.83" gradientUnits="userSpaceOnUse"><stop offset="0" stop-color="#ffa590"/><stop offset="1" stop-color="#ffdfd8"/></linearGradient><linearGradient id="linear-gradient-6" x1="2042.36" y1="1793.79" x2="2199.28" y2="1793.79" xlink:href="#linear-gradient-5"/><linearGradient id="linear-gradient-7" x1="1745.84" y1="800.15" x2="1823.79" y2="800.15" xlink:href="#linear-gradient-5"/><linearGradient id="linear-gradient-8" x1="1690.03" y1="725.49" x2="1807.12" y2="725.49" xlink:href="#linear-gradient-5"/><linearGradient id="linear-gradient-9" x1="1838.3" y1="1092.93" x2="2187.93" y2="1092.93" xlink:href="#linear-gradient-5"/><linearGradient id="linear-gradient-10" x1="1783.69" y1="927.3" x2="1969.19" y2="927.3" gradientUnits="userSpaceOnUse"><stop offset="0" stop-color="#06563b"/><stop offset="1" stop-color="#148366"/></linearGradient><linearGradient id="linear-gradient-11" x1="1757.59" y1="1010.21" x2="1948.54" y2="1010.21" xlink:href="#linear-gradient-10"/><linearGradient id="linear-gradient-12" x1="1445.55" y1="953.56" x2="1796.9" y2="953.56" xlink:href="#linear-gradient-5"/><linearGradient id="linear-gradient-13" x1="1688.42" y1="930.57" x2="1861.41" y2="930.57" xlink:href="#linear-gradient-10"/><linearGradient id="linear-gradient-14" x1="1776.72" y1="981.11" x2="1831.82" y2="981.11" xlink:href="#linear-gradient-10"/><radialGradient id="radial-gradient-3" cx="1135.42" cy="1623.86" r="123.48" gradientTransform="translate(1480.8 -327.24) rotate(45)" xlink:href="#linear-gradient-4"/><linearGradient id="linear-gradient-15" x1="577.81" y1="1140.94" x2="824.07" y2="1140.94" xlink:href="#linear-gradient-10"/><linearGradient id="linear-gradient-16" x1="676.62" y1="877.21" x2="758.8" y2="877.21" gradientUnits="userSpaceOnUse"><stop offset="0" stop-color="#ffdfd8"/><stop offset="1" stop-color="#ffa590"/></linearGradient><linearGradient id="linear-gradient-17" x1="544.8" y1="1202.41" x2="677.17" y2="1202.41" gradientUnits="userSpaceOnUse"><stop offset="0" stop-color="#ffb9a8"/><stop offset="1" stop-color="#fd6d4a"/></linearGradient><linearGradient id="linear-gradient-18" x1="752.67" y1="1210.49" x2="863.2" y2="1210.49" xlink:href="#linear-gradient-17"/><linearGradient id="linear-gradient-19" x1="808.91" y1="1051.3" x2="978.13" y2="1051.3" xlink:href="#linear-gradient-17"/><linearGradient id="linear-gradient-20" x1="1019.92" y1="978.97" x2="1070.43" y2="978.97" xlink:href="#linear-gradient-17"/><linearGradient id="linear-gradient-21" x1="906.25" y1="1073.91" x2="1068.17" y2="1073.91" xlink:href="#linear-gradient-17"/><linearGradient id="linear-gradient-22" x1="858.52" y1="1216.44" x2="913.48" y2="1216.44" gradientUnits="userSpaceOnUse"><stop offset="0" stop-color="#fd6d4a"/><stop offset="1" stop-color="#d93c16"/></linearGradient><linearGradient id="linear-gradient-23" x1="815.69" y1="1057.79" x2="870.65" y2="1057.79" xlink:href="#linear-gradient-22"/><linearGradient id="linear-gradient-24" x1="765.2" y1="1241.63" x2="820.15" y2="1241.63" xlink:href="#linear-gradient-22"/><linearGradient id="linear-gradient-25" x1="722.37" y1="1082.99" x2="777.32" y2="1082.99" xlink:href="#linear-gradient-22"/><linearGradient id="linear-gradient-26" x1="671.87" y1="1266.83" x2="726.83" y2="1266.83" xlink:href="#linear-gradient-22"/><linearGradient id="linear-gradient-27" x1="629.04" y1="1108.18" x2="684" y2="1108.18" xlink:href="#linear-gradient-22"/><linearGradient id="linear-gradient-28" x1="578.55" y1="1292.02" x2="633.5" y2="1292.02" xlink:href="#linear-gradient-22"/><linearGradient id="linear-gradient-29" x1="535.72" y1="1133.38" x2="590.67" y2="1133.38" xlink:href="#linear-gradient-22"/><linearGradient id="linear-gradient-30" x1="485.23" y1="1317.22" x2="540.18" y2="1317.22" xlink:href="#linear-gradient-22"/><linearGradient id="linear-gradient-31" x1="442.39" y1="1158.57" x2="497.35" y2="1158.57" xlink:href="#linear-gradient-22"/><linearGradient id="linear-gradient-32" x1="551.9" y1="1271.36" x2="600.3" y2="1271.36" xlink:href="#linear-gradient-17"/><linearGradient id="linear-gradient-33" x1="428.87" y1="1099.23" x2="619.23" y2="1099.23" xlink:href="#linear-gradient-17"/><linearGradient id="linear-gradient-34" x1="664.68" y1="787.46" x2="806.55" y2="787.46" xlink:href="#linear-gradient-5"/><linearGradient id="linear-gradient-35" x1="1239.5" y1="1956.13" x2="1239.5" y2="1892.1" xlink:href="#linear-gradient-4"/></defs><title>rxstat</title><path class="cls-1" d="M2388,1985.71c-1980.22,0-1894.38,3.43-1894.38,3.43-107-356.79-405-643.56-178.13-1036.08C448.7,722.6,775.2,686.14,736,535.68c-79-303.56,164.86-259,382.87-279.23,204.8-19,379.14-240.17,715.08,204.3,201.18,266.19-155.19,286.37-2.28,485.16,140.93,183.21,395.62,316.7,358.07,497-38.23,183.5-308.37,256.13,81.55,542.84"/><rect class="cls-2" x="850.1" y="454.86" width="778.79" height="1526.77" rx="50.55"/><rect class="cls-3" x="886.11" y="563.22" width="705.96" height="1292.91" rx="56.68"/><path class="cls-4" d="M1078,493.17h323a12.35,12.35,0,0,1,12.35,12.35V506a20.63,20.63,0,0,1-20.63,20.63H1086.29A20.63,20.63,0,0,1,1065.66,506v-.47A12.35,12.35,0,0,1,1078,493.17Z"/><circle class="cls-5" cx="1391.27" cy="804.65" r="154.38" transform="translate(375.51 2050.16) rotate(-80.84)"/><path class="cls-6" d="M1458.28,836.35a19.45,19.45,0,0,0-25.16-1.94l-17.21,11c-.08,0-11.13,4.41-40.83-25.18-29.38-29.5-25.29-40.6-25.34-40.6h0l11-17.27A19.48,19.48,0,0,0,1359,737l-16.41-16.4a19.37,19.37,0,0,0-29.22,2.08,2.2,2.2,0,0,0-.17.25l-8.24,13.53c-1.37,1.87-32.65,46.67,36.7,116.53l.66.65c36.37,36.11,65.94,44.94,86.16,44.94,18.64,0,29.36-7.5,30.14-8.08l14-8.56a19.39,19.39,0,0,0,2.08-29.22Z"/><path class="cls-6" d="M1433.73,799.88a3.17,3.17,0,0,0,4.49,0,29.39,29.39,0,0,0,0-41.49c-11.07-11.09-30.41-11.09-41.5,0a3.18,3.18,0,0,0,4.5,4.49c8.68-8.69,23.82-8.69,32.51,0a23,23,0,0,1,0,32.51A3.17,3.17,0,0,0,1433.73,799.88Z"/><path class="cls-6" d="M1447.72,812.56a3.16,3.16,0,0,0,2.25-.93,46,46,0,0,0-65-65,3.18,3.18,0,0,0,4.5,4.5,39.61,39.61,0,0,1,56,56,3.18,3.18,0,0,0,2.24,5.42Z"/><path class="cls-6" d="M1377.5,739.16a56.53,56.53,0,0,1,80,80,3.18,3.18,0,0,0,4.5,4.49,62.89,62.89,0,0,0-89-88.94,3.18,3.18,0,0,0,4.5,4.5Z"/><circle class="cls-7" cx="1303.35" cy="1222.89" r="141.74" transform="translate(-111.34 2315.06) rotate(-80.84)"/><path class="cls-6" d="M1326.49,1168.94a58.33,58.33,0,0,0-52.37-32.67c-32.33,0-58.63,26.16-58.63,58.3a57.71,57.71,0,0,0,5.58,24.92l-5.48,27.4a5,5,0,0,0,5.87,5.89l27.74-5.49a57.81,57.81,0,0,0,11.57,4C1251.87,1209.18,1283.82,1169.61,1326.49,1168.94Z"/><path class="cls-6" d="M1380.48,1262.13a57.31,57.31,0,0,0,2.5-6.17h-.18c12.47-36.61-13.76-75.1-52.49-77h0a58.3,58.3,0,1,0-2.8,116.53,57.54,57.54,0,0,0,24.84-5.58c30.38,6,28,5.58,28.71,5.58a5,5,0,0,0,4.9-6Z"/><path class="cls-8" d="M1800.31,1935.56a6,6,0,0,0-1.52.6l-43,23.65a12.59,12.59,0,0,0-6,13.91c1.14,4.37,4.87,7.71,14.58,7.91,18,.35,87-10.6,109.83-14.3a6.33,6.33,0,0,1,7.33,6.25h0a6.32,6.32,0,0,0,6.29,6.32l32.18.17a6.33,6.33,0,0,0,6.36-6.21c.26-14.56.09-50.52-7.51-63.28a6.29,6.29,0,0,0-6.92-2.83Z"/><path class="cls-9" d="M1915.51,1708.47l-58-4.71v161.63a48.53,48.53,0,0,1-17.84,37.59l-40.16,32.78s7.53,21.6,40.88,7.2,75.12-36.09,75.12-36.09l-6.09-25Z"/><path class="cls-8" d="M1806.83,1207l23.57,656.12h112.49l5.64-715.9a9.49,9.49,0,0,0-12.88-8.94L1824,1181A26.81,26.81,0,0,0,1806.83,1207Z"/><path class="cls-8" d="M1818.75,1176l56.61,329a66.75,66.75,0,0,0,87.45,52h0a66.75,66.75,0,0,0,45-67.9l-10.84-149.45c-5.13-47.65,5.67-108.44-39-190.31a22.27,22.27,0,0,0-26.5-10.44Z"/><path class="cls-8" d="M2116.27,1919.19,2092,1962.74a12.6,12.6,0,0,0,2.3,15c3.28,3.1,8.21,4,16.55-1,15.41-9.22,68.17-55.15,85.51-70.37a6.33,6.33,0,0,1,9.53,1.4h0a6.33,6.33,0,0,0,8.69,2L2242,1892.8a6.32,6.32,0,0,0,2.09-8.63c-8.48-14.12-31.94-51.13-44.76-51Z"/><path class="cls-10" d="M2180.85,1815.2,2094,1665l-51.67,26.77,88.1,140.77a39.19,39.19,0,0,1,3.89,33.37l-18.08,53.3s17.84,14.31,38.47-15.59,44.54-70.44,44.54-70.44Z"/><polygon class="cls-8" points="1883.79 1527.99 2092.88 1839.82 2190.32 1777.35 1988.24 1438.07 1883.79 1527.99"/><path d="M1727.79,641.66s-46.47-6.06-52.53,37.92c-4.51,32.73,10.56,48.85-1.25,75.18a38.89,38.89,0,0,0-3.46,15.9c-.08,20.08,15.32,36.89,35.24,39.41,21.46,2.72,56.53.08,93.4-32.16Z"/><polygon class="cls-11" points="1745.84 788.76 1771.05 854.25 1823.79 840.2 1775.08 746.05 1745.84 788.76"/><path class="cls-12" d="M1721.9,651.5s-31.31,6.61-31.33,46.35c0,0-1.5,15.18.49,56.58,1.41,29.33,15.24,49.63,42.76,46.82,13.34-1.36,27.32-9.5,39.83-20l17.53-17.87c40.53-49.45-1.76-124-64.7-112.74C1725,650.87,1723.45,651.17,1721.9,651.5Z"/><path class="cls-13" d="M1767.07,719.75c1.11-9,7.23-71.56-39.64-63.48-7.27,1.25-11-8.43-4.7-12.34,16.75-10.45,43.35-17.67,81.81-2.85,15.61,6,37.13,26.59,37.13,46.82,0,43.41-14.44,65.42-39.88,87.76a2.7,2.7,0,0,1-4.17-.79l-16.39-31.67a2.55,2.55,0,0,1-.14-.35c-1.81-5.75-10.93-17.84-13.49-21.17A2.58,2.58,0,0,1,1767.07,719.75Z"/><path d="M1735.69,640.91c-59,27.17,27.32,91.85,27.32,91.85h0L1787.28,685S1745.54,636.37,1735.69,640.91Z"/><path d="M1771.44,746.32c2,14.6,2,30.06,1.57,40.89a16.47,16.47,0,0,0,15.12,17.11c21.47,1.73,59.7-2.54,84.56-47.5a18.18,18.18,0,0,0-5.24-23.38c-5.91-4.4-12.31-10.85-15.42-19.55-6.62-18.55-.08-83.11-86.91-81.2C1765.12,632.69,1767.31,716.77,1771.44,746.32Z"/><path class="cls-14" d="M1800,732.23a20,20,0,1,1-22.37-17.4A20,20,0,0,1,1800,732.23Z"/><path class="cls-15" d="M2186.38,1256.61l-27.81-26.71,17.47,10.44a5.61,5.61,0,0,0,7.44-8.37l-59.36-55.56.8-.93L2033.49,1001c-.63-.86-1.3-1.67-2-2.46a40.48,40.48,0,0,0-7.28-8.15l-123.29-99.85-62.63,55.59,131.23,104a40.34,40.34,0,0,0,3.09,3.47L2088.18,1202c-.13.66-.28,1.32-.39,2l-1.25,7.86a68.33,68.33,0,0,0,2.39,31.59l5.73,17.94a7.25,7.25,0,0,0,10.22,4.23,9.26,9.26,0,0,0,5-9.1l-1.87-19.91,39.78,56.29a5.6,5.6,0,0,0,8.34,1.11l1.71-1.49a5.6,5.6,0,0,0,1.19-7l-25.4-38.83,35.34,40.56a5.61,5.61,0,0,0,8.38.59l1.19-1.17a5.61,5.61,0,0,0,.51-7.41l-29.22-37.62,28.46,23.69a5.6,5.6,0,0,0,8.61-1.47l.35-.63A5.61,5.61,0,0,0,2186.38,1256.61Z"/><path class="cls-16" d="M1965.56,949.55c-9.42,15.86-28.17,38.58-65.21,63l-94.17-70a55.73,55.73,0,0,1-8.3-81.88h0A55.74,55.74,0,0,1,1869,850.56l89.34,64.63A26,26,0,0,1,1965.56,949.55Z"/><path class="cls-17" d="M1806.7,838.2s-48.46-4.69-49.1,82.85c-.6,82.47,23.82,124,44.59,242.9a24,24,0,0,0,28.82,19.34c26.38-5.85,69.31-18.26,106.66-42.42a23.94,23.94,0,0,0,10.86-20.57C1947.36,1060.33,1934.75,814.19,1806.7,838.2Z"/><path class="cls-18" d="M1749.66,886.34l-99.78,97.58-112.35-85c-4.86-14.81-17.8-30.06-30.79-37.13l.11-.08-49.9-29a7.48,7.48,0,0,0-10.17,1.75,6.44,6.44,0,0,0,1,8.69l22.12,18.7a39,39,0,0,0-18.9,23.26c-6.16,20.69,1.38,35.42,22.17,41.25,15.27,4.28,27.61,7,37.37,7.54l114,128a39.11,39.11,0,0,0,32.49,13.74,40.23,40.23,0,0,0,25.22-10.44L1796.9,955.48Z"/><path class="cls-19" d="M1748.61,1019.16c-14.2-7.65-35.65-25.22-58-65.57a17.63,17.63,0,0,1,2.65-20.62l71.9-76.09a55.74,55.74,0,0,1,82.3,1.39h0a55.74,55.74,0,0,1,1.64,71.83l-74,84.2A21.64,21.64,0,0,1,1748.61,1019.16Z"/><line class="cls-20" x1="1776.72" y1="1012.45" x2="1831.82" y2="949.76"/><circle class="cls-21" cx="1135.42" cy="1623.86" r="123.48" transform="translate(-815.69 1278.48) rotate(-45)"/><path class="cls-6" d="M1180.4,1573.47a54.34,54.34,0,0,0-46.17-27.41h-2.47a54.36,54.36,0,0,0-46.18,27.41,55.77,55.77,0,0,0-.72,55.09l39.71,72.68,0,.1a9.66,9.66,0,0,0,16.75,0s0-.07.05-.1l39.71-72.68a55.74,55.74,0,0,0-.73-55.09ZM1133,1618.61a22.52,22.52,0,1,1,22.52-22.52A22.55,22.55,0,0,1,1133,1618.61Z"/><path id="Rectangle_55" data-name="Rectangle 55" class="cls-22" d="M281.74,1981.45H2333.63c14.82,0,26.83,5.36,26.83,12h0c0,6.6-12,12-26.83,12H281.74c-14.81,0-26.82-5.36-26.82-12h0C254.92,1986.81,266.93,1981.45,281.74,1981.45Z"/><path class="cls-8" d="M775.49,1784.08c-13.8,66.64-33.78,168.5-47.62,169.43-8.45.57-28.4,13.52-39.22-8.12-8-16,6.32-74.83,4.82-111-.85-20.61-1.7-41.21.1-61.77,6.76-77,5.42-190.76,2.48-297.15-.06-2.17-3.37-2.32-3.75-.17-7.36,41.47-15.24,87.14-16.6,99.13-2.36,20.9-9.14,46.13-18.4,72-11,30.77-30.94,268.6-45.73,294.92-13.12,23.32-36.22,49.29-46.66,4.05-5.77-25-7.33-83.94-2-148.26,4.8-158,18.22-470.28,22.29-470.53,40.23-2.51,144.6-4.73,220,5.18,5.94,23.9,9.38,62.87,7.92,87C810.68,1457.68,777.24,1775.66,775.49,1784.08Z"/><path class="cls-23" d="M752.67,887.15c4.13,1.38,67.07,45.1,69.76,48.52,3.54,4.48.27,94.87.19,100.58-2.27,146.42-2.09,215.38-4.35,361.8-79.78,12.47-160.51,6.33-240.46-5C589.4,1270.4,582,1157,580.29,1033.8c-.49-36-3-112.5,26-134.29,4.34-3.26,65.58-19.28,70.87-20.5C697.12,874.4,724.34,877.68,752.67,887.15Z"/><path class="cls-24" d="M757,908.12c.73,3.7-2.62,33.23-29.75,33.17-14.64,0-24-4.56-36.19-12.66-15.38-10.19-15.19-45.29-13.88-49.62,6.84-22.63,6.87-48.94,8.53-65.88,15.31,2.38,67.3,12.09,71.36,16.19,5.69,5.75-4.37,35.57-4.51,44.4C752.23,893.2,753.22,889,757,908.12Z"/><path class="cls-25" d="M594.13,901.87c-7.31,3.51-15,7.42-19.25,14.29-3.07,4.9-4.08,10.78-5,16.49-29.94,189.72,25.45,377.18-24.3,560.42A22.6,22.6,0,0,0,563,1521.15c21.91,4.36,38.67,5.21,64.87,4.37a22.62,22.62,0,0,0,21.87-21.73c8.18-209.33,19.44-415.21,27.41-624.78C644.65,880.64,623.69,887.68,594.13,901.87Z"/><path class="cls-26" d="M785.28,1533.73c18,.73,33.14-2.64,52-6.27a22.61,22.61,0,0,0,18.33-21.74c2.72-132.22,4.36-232.85,7.19-368.13,1-45.74,3-176.08-28.76-209-14.71-15.23-81.34-41.46-81.34-41.46,19.82,35.11,22.3,144.39,23.37,167.1,5.21,109.8,1.62,176.61-3.11,286.43-2.4,55.8-4.65,112.74-9.29,168.64A22.61,22.61,0,0,0,785.28,1533.73Z"/><path class="cls-27" d="M908.87,1008.14c15,28.65,60.74,86.37,68.9,127,3.93,19.56-24.68,68.45-66.33,24.47-56.63-59.8-65.31-87.62-95.86-160.79-14-33.55-4.71-83,16.38-72.12C848.71,935.36,899.66,990.58,908.87,1008.14Z"/><path class="cls-28" d="M1038.81,895.88c-.3-2.74-.47-6,1.66-7.73s5.78-.75,7.59,1.48,2.3,5.2,2.75,8l3.48,22.33c10.9-15.45,18.87-59.5,28.27-55.61,2.85,1.17,2.39,5.4,1.72,8.4-2.61,11.67-5.11,26.62-7.73,38.29,5.64-13.1,27.9-47.81,34.07-44.74,7.39,3.49-11.62,34.14-21,50.72,10.87-10.27,33.23-32,36.34-25.66,2,4.76.1,7.4-10.57,17.82-6.76,6.61-9,11.27-14.9,18.65,7-2.05,17.14-4.49,24.16-6.53a6.47,6.47,0,0,1,3.52-.35c2.48.68,3.21,4.13,2,6.41S1105,940.47,1102.93,942c-10.62,7.67-11.75,12.79-25.91,27-4,4-8.56,8.51-14.26,8.6C1025.57,978.11,1041,915.68,1038.81,895.88Z"/><path class="cls-29" d="M1066.84,973.67l-25.74-18.5a8.61,8.61,0,0,0-12.64,3c-3.13,5.91-7,13.43-8.54,17.72-.38,1,30.41,31.5,39.28,28.32,4-1.42,8.39-13.36,10.81-20.84A8.61,8.61,0,0,0,1066.84,973.67Z"/><path class="cls-30" d="M967.16,1172.65c-14.8,10.06-36.28,14.73-49.73,2.92-5.12-4.5-8.36-10.87-9.94-17.51-5.64-23.7,9.07-46.83,22.31-67.29,29.56-45.69,71.23-101.21,86.09-120.8a11.86,11.86,0,0,1,14.86-3.39c11.14,5.71,24.59,15.51,32.76,21.78a11.84,11.84,0,0,1,3.58,14.35C1044.81,1051.44,995.47,1153.43,967.16,1172.65Z"/><path class="cls-31" d="M400.91,1106.19l471.88-127.4A27.19,27.19,0,0,1,906.12,998l77.54,287.19a27.2,27.2,0,0,1-19.17,33.34l-471.88,127.4a27.2,27.2,0,0,1-33.34-19.17l-77.53-287.19A27.19,27.19,0,0,1,400.91,1106.19Z"/><path class="cls-6" d="M922.18,1267.39a23.52,23.52,0,1,1-45.42,12.27l-8.71-32.26,45.43-12.26Z"/><path class="cls-32" d="M904.77,1202.88l8.71,32.26-45.43,12.26-8.71-32.26a23.53,23.53,0,0,1,45.43-12.26Z"/><path class="cls-6" d="M879.35,1108.75A23.52,23.52,0,0,1,833.93,1121l-8.71-32.26,45.43-12.26Z"/><path class="cls-33" d="M861.94,1044.23l8.71,32.26-45.43,12.26-8.71-32.26a23.53,23.53,0,0,1,45.43-12.26Z"/><path class="cls-6" d="M828.86,1292.59a23.52,23.52,0,0,1-45.42,12.26l-8.71-32.26,45.42-12.26Z"/><path class="cls-34" d="M811.44,1228.07l8.71,32.26-45.42,12.26L766,1240.34a23.52,23.52,0,1,1,45.42-12.27Z"/><path class="cls-6" d="M786,1133.94a23.52,23.52,0,0,1-45.42,12.26L731.9,1114l45.42-12.27Z"/><path class="cls-35" d="M768.61,1069.43l8.71,32.25L731.9,1114l-8.71-32.26a23.52,23.52,0,1,1,45.42-12.26Z"/><path class="cls-6" d="M735.53,1317.78a23.52,23.52,0,1,1-45.42,12.27l-8.71-32.26,45.43-12.26Z"/><path class="cls-36" d="M718.12,1253.27l8.71,32.26-45.43,12.26-8.71-32.26a23.53,23.53,0,0,1,45.43-12.26Z"/><path class="cls-6" d="M692.7,1159.14a23.52,23.52,0,0,1-45.42,12.26l-8.71-32.26L684,1126.88Z"/><path class="cls-37" d="M675.29,1094.62l8.71,32.26-45.43,12.26-8.71-32.26a23.53,23.53,0,0,1,45.43-12.26Z"/><path class="cls-6" d="M642.21,1343a23.52,23.52,0,0,1-45.42,12.26L588.08,1323l45.42-12.26Z"/><path class="cls-38" d="M624.79,1278.46l8.71,32.26L588.08,1323l-8.71-32.25a23.52,23.52,0,1,1,45.42-12.27Z"/><path class="cls-6" d="M599.38,1184.33A23.52,23.52,0,0,1,554,1196.59l-8.71-32.25,45.42-12.27Z"/><path class="cls-39" d="M582,1119.82l8.71,32.25-45.42,12.27-8.71-32.26A23.52,23.52,0,1,1,582,1119.82Z"/><path class="cls-6" d="M548.89,1368.17a23.53,23.53,0,0,1-45.43,12.27l-8.71-32.26,45.43-12.26Z"/><path class="cls-40" d="M531.47,1303.66l8.71,32.26-45.43,12.26L486,1315.92a23.53,23.53,0,0,1,45.43-12.26Z"/><path class="cls-6" d="M506.05,1209.53a23.52,23.52,0,0,1-45.42,12.26l-8.71-32.26,45.43-12.26Z"/><path class="cls-41" d="M488.64,1145l8.71,32.26-45.43,12.26-8.71-32.26A23.53,23.53,0,0,1,488.64,1145Z"/><path class="cls-28" d="M612.29,1283.46c2,18.28,37.89,31.8,31.15,48.9-3.67,9.31-21.79,5.06-31,.93-9.64-4.32-24.17-14.33-31.7-21.74-14.35-14.11-24.08-49,7.74-50.09,11.11-.39,17.61,5.2,27.16,10.45,3.8,2.1,21.7,7.08,20.17,12.95C634.66,1289.22,612.52,1285.53,612.29,1283.46Z"/><path class="cls-42" d="M599,1265.42c-5.52,7.72-17.47,23.92-27.58,34.19a6.81,6.81,0,0,1-10.54-.95c-3.11-4.7-5.51-9.53-9-14.8,9.75-14,23.31-28.8,33-42.8,3.88,4.42,10,11.52,13.79,16A6.82,6.82,0,0,1,599,1265.42Z"/><path class="cls-43" d="M428.87,1111.07c-.76,12.2,70.56,136.92,121.4,181.76a7.36,7.36,0,0,0,10.12-.34c11.61-11.78,27.65-28.85,35.31-37a7.35,7.35,0,0,0,.35-9.64c-12-14.89-48.37-62.61-80.43-129.92-4.56-9.58,52.7-74.77,82.58-108.53,24.33-27.49,39.35-132.78-23.44-95.78C514.58,947,429.88,1095,428.87,1111.07Z"/><path class="cls-44" d="M793.85,853.25c-7.55,13.49-19.14,33-33.48,33.38-31.09.79-43.22-.11-68.7-38.66-14.36-21.71-31.13-81.7-26.07-107.39,2.58-13.08.57-26.81,10.19-36.05,5.15-4.94,11.62-8.3,18.3-10.81a91.61,91.61,0,0,1,77.33,6.72c27.2,16,36.75,38.68,34.9,69.42C804.33,803.06,810.78,823,793.85,853.25Z"/><path d="M716.61,732.26c-16.51,1.07-15.07,36.14-13.59,44,8.34,44.27-8.79,33.6-27,34.08-1.89,0-9.87-2.13-13.92-9.25-13.53-23.75-16.86-54-11.62-78.87,3.87-18.38,27.29-28.52,27.29-28.52.21-35,124.23-37.75,137.14,3.51,5.18,16.58,4.77,31-14.32,34.24C774,736,734.05,731.13,716.61,732.26Z"/><path class="cls-28" d="M669.1,779.39c5.6-5.16,14.94-3.63,20,2.11s5.63,37.85.78,41.15a14.65,14.65,0,0,1-16.48-.51C664.74,815.86,654.41,792.93,669.1,779.39Z"/><rect class="cls-45" x="1128.55" y="1892.1" width="221.89" height="64.03" rx="31.97"/><path class="cls-46" d="M736.6,1935.8H691.94a12.08,12.08,0,0,0-12.08,12.08v21A12.08,12.08,0,0,0,691.94,1981H799.29c7.51,0,10.33-16.08,4.61-20.89a5.17,5.17,0,0,0-1.59-.88l-61.54-22.65A12.15,12.15,0,0,0,736.6,1935.8Z"/><path class="cls-46" d="M614.84,1936.1H573.15a14.34,14.34,0,0,0-14.33,14.33v16.26A14.34,14.34,0,0,0,573.15,1981H677.61c6.87,0,9.79-13.51,5.8-19.42a6.5,6.5,0,0,0-3.16-2.37L619.79,1937A14.43,14.43,0,0,0,614.84,1936.1Z"/></svg>