<?xml version="1.0" encoding="utf-8"?>
<!-- Generator: Adobe Illustrator 23.0.2, SVG Export Plug-In . SVG Version: 6.00 Build 0)  -->
<svg version="1.1" id="Layer_1" xmlns="http://www.w3.org/2000/svg" xmlns:xlink="http://www.w3.org/1999/xlink" x="0px" y="0px"
	 viewBox="0 0 351 301" style="enable-background:new 0 0 351 301;" xml:space="preserve">
<style type="text/css">
	.st0{display:none;}
	.st1{display:inline;opacity:9.000000e-02;}
	.st2{clip-path:url(#SVGID_2_);fill:url(#SVGID_3_);}
	.st3{clip-path:url(#SVGID_5_);fill:url(#SVGID_6_);}
	.st4{fill:url(#SVGID_7_);}
	.st5{clip-path:url(#SVGID_9_);fill:url(#SVGID_10_);}
	.st6{clip-path:url(#SVGID_12_);}
	.st7{fill:url(#SVGID_13_);}
	.st8{fill:#170F12;}
	.st9{fill:url(#SVGID_14_);}
	.st10{fill:url(#SVGID_15_);}
	.st11{fill:url(#SVGID_16_);}
	.st12{fill:url(#SVGID_17_);}
	.st13{fill:url(#SVGID_18_);}
	.st14{fill:url(#SVGID_19_);}
	.st15{fill:url(#SVGID_20_);}
	.st16{fill:url(#SVGID_21_);}
	.st17{fill:url(#SVGID_22_);}
	.st18{fill:url(#SVGID_23_);}
	.st19{fill:url(#SVGID_24_);}
	.st20{fill:url(#SVGID_25_);}
	.st21{fill:url(#SVGID_26_);}
	.st22{fill:url(#SVGID_27_);}
	.st23{fill:url(#SVGID_28_);}
	.st24{fill:url(#SVGID_29_);}
	.st25{fill:url(#SVGID_30_);}
	.st26{fill:url(#SVGID_31_);}
	.st27{fill:#FFFFFF;}
	.st28{fill:url(#SVGID_32_);}
	.st29{clip-path:url(#SVGID_34_);}
	.st30{fill:url(#SVGID_35_);}
	.st31{fill:url(#SVGID_36_);}
	.st32{fill:url(#SVGID_37_);}
	.st33{fill:url(#SVGID_38_);}
	.st34{fill:url(#SVGID_39_);}
	.st35{fill:url(#SVGID_40_);}
	.st36{fill:url(#SVGID_41_);}
	.st37{fill:url(#SVGID_42_);}
	.st38{fill:url(#SVGID_43_);}
	.st39{fill:url(#SVGID_44_);}
	.st40{fill:url(#SVGID_45_);}
	.st41{fill:url(#SVGID_46_);}
	.st42{fill:url(#SVGID_47_);}
	.st43{fill:#242424;}
	.st44{fill:url(#SVGID_48_);}
	.st45{fill:url(#SVGID_49_);}
	.st46{fill:url(#SVGID_50_);}
	.st47{fill:url(#SVGID_51_);}
	.st48{fill:url(#SVGID_52_);}
	.st49{fill:url(#SVGID_53_);}
	.st50{fill:url(#SVGID_54_);}
	.st51{fill:url(#SVGID_55_);}
	.st52{fill:#38313C;}
	.st53{fill:url(#SVGID_56_);}
	.st54{fill:url(#SVGID_57_);}
	.st55{fill:url(#SVGID_58_);}
	.st56{fill:#9D3F28;}
	.st57{fill:#FFF4F0;}
	.st58{fill:#F48070;}
	.st59{fill:url(#SVGID_59_);}
	.st60{fill:url(#SVGID_60_);}
	.st61{fill:url(#SVGID_61_);}
	.st62{fill:url(#SVGID_62_);}
	.st63{fill:url(#SVGID_63_);}
	.st64{fill:url(#SVGID_64_);}
	.st65{fill:url(#SVGID_65_);}
	.st66{fill:url(#SVGID_66_);}
	.st67{clip-path:url(#SVGID_68_);fill:url(#SVGID_69_);}
	.st68{clip-path:url(#SVGID_71_);}
	.st69{fill:url(#SVGID_72_);}
	.st70{fill:url(#SVGID_73_);}
	.st71{fill:url(#SVGID_74_);}
	.st72{fill:url(#SVGID_75_);}
	.st73{fill:url(#SVGID_76_);}
	.st74{fill:url(#SVGID_77_);}
	.st75{fill:url(#SVGID_78_);}
	.st76{fill:url(#SVGID_79_);}
	.st77{fill:url(#SVGID_80_);}
	.st78{fill:url(#SVGID_81_);}
	.st79{fill:url(#SVGID_82_);}
	.st80{fill:url(#SVGID_83_);}
	.st81{fill:url(#SVGID_84_);}
	.st82{fill:url(#SVGID_85_);}
	.st83{fill:url(#SVGID_86_);}
	.st84{fill:url(#SVGID_87_);}
	.st85{fill:url(#SVGID_88_);}
	.st86{fill:url(#SVGID_89_);}
	.st87{fill:url(#SVGID_90_);}
	.st88{fill:url(#SVGID_91_);}
	.st89{fill:url(#SVGID_92_);}
	.st90{fill:url(#SVGID_93_);}
	.st91{fill:url(#SVGID_94_);}
	.st92{fill:url(#SVGID_95_);}
	.st93{fill:url(#SVGID_96_);}
	.st94{fill:url(#SVGID_97_);}
	.st95{fill:url(#SVGID_98_);}
	.st96{fill:url(#SVGID_99_);}
	.st97{fill:url(#SVGID_100_);}
	.st98{fill:url(#SVGID_101_);}
	.st99{fill:url(#SVGID_102_);}
	.st100{fill:url(#SVGID_103_);}
	.st101{fill:url(#SVGID_104_);}
	.st102{fill:url(#SVGID_105_);}
	.st103{fill:url(#SVGID_106_);}
	.st104{fill:url(#SVGID_107_);}
	.st105{fill:url(#SVGID_108_);}
	.st106{fill:url(#SVGID_109_);}
	.st107{fill:url(#SVGID_110_);}
	.st108{fill:url(#SVGID_111_);}
	.st109{fill:url(#SVGID_112_);}
	.st110{fill:url(#SVGID_113_);}
	.st111{fill:url(#SVGID_114_);}
	.st112{fill:url(#SVGID_115_);}
	.st113{fill:url(#SVGID_116_);}
	.st114{fill:url(#SVGID_117_);}
	.st115{fill:url(#SVGID_118_);}
	.st116{fill:url(#SVGID_119_);}
	.st117{fill:url(#SVGID_120_);}
	.st118{fill:url(#SVGID_121_);}
	.st119{fill:url(#SVGID_122_);}
	.st120{fill:url(#SVGID_123_);}
	.st121{fill:url(#SVGID_124_);}
	.st122{clip-path:url(#SVGID_126_);}
	.st123{fill:url(#SVGID_127_);}
	.st124{fill:url(#SVGID_128_);}
	.st125{fill:url(#SVGID_129_);}
	.st126{fill:url(#SVGID_130_);}
	.st127{fill:url(#SVGID_131_);}
	.st128{fill:url(#SVGID_132_);}
	.st129{fill:url(#SVGID_133_);}
	.st130{fill:url(#SVGID_134_);}
	.st131{fill:url(#SVGID_135_);}
	.st132{fill:url(#SVGID_136_);}
	.st133{fill:url(#SVGID_137_);}
	.st134{fill:url(#SVGID_138_);}
	.st135{fill:url(#SVGID_139_);}
	.st136{fill:url(#SVGID_140_);}
</style>
<linearGradient id="SVGID_2_" gradientUnits="userSpaceOnUse" x1="175.5" y1="294.5" x2="175.5" y2="594.4999" gradientTransform="matrix(1 0 0 1 0 -294)">
	<stop  offset="0" style="stop-color:#FEF2EF"/>
	<stop  offset="1" style="stop-color:#FBC9BD"/>
</linearGradient>
<rect x="0.5" y="0.5" style="fill:url(#SVGID_2_);" width="350" height="300"/>
<g>
	<g>
		<g>
			<defs>
				<rect id="SVGID_8_" x="0.5" y="0.5" width="350" height="300"/>
			</defs>
			<clipPath id="SVGID_3_">
				<use xlink:href="#SVGID_8_"  style="overflow:visible;"/>
			</clipPath>
			
				<linearGradient id="SVGID_5_" gradientUnits="userSpaceOnUse" x1="109.873" y1="515.7242" x2="272.6591" y2="405.9237" gradientTransform="matrix(1 0 0 1 0 -294)">
				<stop  offset="0" style="stop-color:#FFFFFF"/>
				<stop  offset="1" style="stop-color:#FFFFFF"/>
			</linearGradient>
			<path style="clip-path:url(#SVGID_3_);fill:url(#SVGID_5_);" d="M-4,39.3C67.9,96,61.7,133.1,88,186.9s53,34.8,89.4,86.6
				c22,31.2,191.9,70.7,193.5,41.9s-32.7-151.7-98.4-162.6c-61-10.1-56.7-23.2-74.3-60.7c-17.6-37.6-15.4-58.8-54.3-75.1
				C16.1-36.5-4,39.3-4,39.3z"/>
		</g>
	</g>
	<g>
		<g>
			<defs>
				<rect id="SVGID_11_" x="0.5" y="0.5" width="350" height="300"/>
			</defs>
			<clipPath id="SVGID_6_">
				<use xlink:href="#SVGID_11_"  style="overflow:visible;"/>
			</clipPath>
			<g style="clip-path:url(#SVGID_6_);">
				<g>
					<g>
						<ellipse class="st8" cx="305.1" cy="195.6" rx="23.6" ry="23.6"/>
						
							<linearGradient id="SVGID_7_" gradientUnits="userSpaceOnUse" x1="3124.9885" y1="486.7" x2="3450.844" y2="486.7" gradientTransform="matrix(-1 0 0 1 3697.3118 -294)">
							<stop  offset="3.547484e-07" style="stop-color:#F36D4E"/>
							<stop  offset="0.2373" style="stop-color:#F06B4B"/>
							<stop  offset="0.4786" style="stop-color:#EA6343"/>
							<stop  offset="0.7218" style="stop-color:#E25636"/>
							<stop  offset="0.965" style="stop-color:#D84428"/>
							<stop  offset="1" style="stop-color:#D74127"/>
						</linearGradient>
						<path class="st4" d="M256,193.4c-0.8-0.4-1.5-0.9-2.2-1.4C254.5,192.5,255.2,193,256,193.4z"/>
						
							<linearGradient id="SVGID_9_" gradientUnits="userSpaceOnUse" x1="3124.9885" y1="478.7499" x2="3450.844" y2="478.7499" gradientTransform="matrix(-1 0 0 1 3697.3118 -294)">
							<stop  offset="3.547484e-07" style="stop-color:#F36D4E"/>
							<stop  offset="0.2373" style="stop-color:#F06B4B"/>
							<stop  offset="0.4786" style="stop-color:#EA6343"/>
							<stop  offset="0.7218" style="stop-color:#E25636"/>
							<stop  offset="0.965" style="stop-color:#D84428"/>
							<stop  offset="1" style="stop-color:#D74127"/>
						</linearGradient>
						<path style="fill:url(#SVGID_9_);" d="M246.5,177.5L246.5,177.5c0,6,2.9,11.2,7.3,14.5C249.3,188.7,246.5,183.4,246.5,177.5z"
							/>
						
							<linearGradient id="SVGID_10_" gradientUnits="userSpaceOnUse" x1="3124.7117" y1="407.6" x2="3450.6118" y2="407.6" gradientTransform="matrix(-1 0 0 1 3697.3118 -294)">
							<stop  offset="3.547484e-07" style="stop-color:#F36D4E"/>
							<stop  offset="0.2373" style="stop-color:#F06B4B"/>
							<stop  offset="0.4786" style="stop-color:#EA6343"/>
							<stop  offset="0.7218" style="stop-color:#E25636"/>
							<stop  offset="0.965" style="stop-color:#D84428"/>
							<stop  offset="1" style="stop-color:#D74127"/>
						</linearGradient>
						<path style="fill:url(#SVGID_10_);" d="M550.8,132.9L523.4,121c-2.1-0.9-4-2.2-5.6-3.8l-29.3-29.3c-5.8-5.8-12-11.1-18.5-15.8
							c-17.9-13-39.6-20-61.7-20H268.2c-11.9,0-21.5,9.6-21.5,21.5v101.5h32.1c6.1-7.9,15.7-13,26.5-13s20.4,5.1,26.5,13h240.8v-9.4
							C572.3,151.4,563.9,138.5,550.8,132.9z"/>
						
							<linearGradient id="SVGID_12_" gradientUnits="userSpaceOnUse" x1="3124.9885" y1="488.5" x2="3450.844" y2="488.5" gradientTransform="matrix(-1 0 0 1 3697.3118 -294)">
							<stop  offset="3.547484e-07" style="stop-color:#F36D4E"/>
							<stop  offset="0.2373" style="stop-color:#F06B4B"/>
							<stop  offset="0.4786" style="stop-color:#EA6343"/>
							<stop  offset="0.7218" style="stop-color:#E25636"/>
							<stop  offset="0.965" style="stop-color:#D84428"/>
							<stop  offset="1" style="stop-color:#D74127"/>
						</linearGradient>
						<path style="fill:url(#SVGID_12_);" d="M259.2,194.8c-0.6-0.2-1.1-0.4-1.7-0.6C258.1,194.4,258.7,194.6,259.2,194.8z"/>
						
							<linearGradient id="SVGID_13_" gradientUnits="userSpaceOnUse" x1="3124.9885" y1="479.2" x2="3450.844" y2="479.2" gradientTransform="matrix(-1 0 0 1 3697.3118 -294)">
							<stop  offset="3.547484e-07" style="stop-color:#F36D4E"/>
							<stop  offset="0.2373" style="stop-color:#F06B4B"/>
							<stop  offset="0.4786" style="stop-color:#EA6343"/>
							<stop  offset="0.7218" style="stop-color:#E25636"/>
							<stop  offset="0.965" style="stop-color:#D84428"/>
							<stop  offset="1" style="stop-color:#D74127"/>
						</linearGradient>
						<path class="st7" d="M246.5,175v2.4c0,6,2.9,11.2,7.3,14.5c0.7,0.5,1.4,1,2.2,1.4c0.5,0.3,1,0.5,1.6,0.8
							c0.5,0.2,1.1,0.4,1.7,0.6c1.7,0.5,3.5,0.8,5.4,0.8h6.9c0-7.8,2.6-14.9,7.1-20.6L246.5,175L246.5,175z"/>
						
							<linearGradient id="SVGID_14_" gradientUnits="userSpaceOnUse" x1="3434.7117" y1="469.0248" x2="3434.7117" y2="489.6248" gradientTransform="matrix(-1 0 0 1 3697.3118 -294)">
							<stop  offset="3.547484e-07" style="stop-color:#F36D4E"/>
							<stop  offset="0.2373" style="stop-color:#F06B4B"/>
							<stop  offset="0.4786" style="stop-color:#EA6343"/>
							<stop  offset="0.7218" style="stop-color:#E25636"/>
							<stop  offset="0.965" style="stop-color:#D84428"/>
							<stop  offset="1" style="stop-color:#D74127"/>
						</linearGradient>
						<path class="st9" d="M246.5,175v2.4c0,6,2.9,11.2,7.3,14.5c0.7,0.5,1.4,1,2.2,1.4c0.5,0.3,1,0.5,1.6,0.8
							c0.5,0.2,1.1,0.4,1.7,0.6c1.7,0.5,3.5,0.8,5.4,0.8h6.9c0-7.8,2.6-14.9,7.1-20.6L246.5,175L246.5,175z"/>
						
							<linearGradient id="SVGID_15_" gradientUnits="userSpaceOnUse" x1="3125.0117" y1="479.3" x2="3450.8672" y2="479.3" gradientTransform="matrix(-1 0 0 1 3697.3118 -294)">
							<stop  offset="3.547484e-07" style="stop-color:#F36D4E"/>
							<stop  offset="0.2373" style="stop-color:#F06B4B"/>
							<stop  offset="0.4786" style="stop-color:#EA6343"/>
							<stop  offset="0.7218" style="stop-color:#E25636"/>
							<stop  offset="0.965" style="stop-color:#D84428"/>
							<stop  offset="1" style="stop-color:#D74127"/>
						</linearGradient>
						<path class="st10" d="M338.6,195.6h94.2h125.5c7.7,0,14-6.2,14-14V175H331.5C336,180.7,338.6,187.8,338.6,195.6z"/>
						
							<linearGradient id="SVGID_16_" gradientUnits="userSpaceOnUse" x1="3245.4119" y1="469.0248" x2="3245.4119" y2="489.6248" gradientTransform="matrix(-1 0 0 1 3697.3118 -294)">
							<stop  offset="3.547484e-07" style="stop-color:#F36D4E"/>
							<stop  offset="0.2373" style="stop-color:#F06B4B"/>
							<stop  offset="0.4786" style="stop-color:#EA6343"/>
							<stop  offset="0.7218" style="stop-color:#E25636"/>
							<stop  offset="0.965" style="stop-color:#D84428"/>
							<stop  offset="1" style="stop-color:#D74127"/>
						</linearGradient>
						<path class="st11" d="M338.6,195.6h94.2h125.5c7.7,0,14-6.2,14-14V175H331.5C336,180.7,338.6,187.8,338.6,195.6z"/>
						
							<radialGradient id="SVGID_17_" cx="3392.2117" cy="489.6" r="28.1" gradientTransform="matrix(-1 0 0 1 3697.3118 -294)" gradientUnits="userSpaceOnUse">
							<stop  offset="0" style="stop-color:#1B8267"/>
							<stop  offset="1" style="stop-color:#0C573C"/>
						</radialGradient>
						<circle class="st12" cx="305.1" cy="195.6" r="28.1"/>
						
							<radialGradient id="SVGID_18_" cx="3392.2117" cy="489.6" r="12.1294" gradientTransform="matrix(-1 0 0 1 3697.3118 -294)" gradientUnits="userSpaceOnUse">
							<stop  offset="0" style="stop-color:#0C573C"/>
							<stop  offset="1" style="stop-color:#1B8267"/>
						</radialGradient>
						<circle class="st13" cx="305.1" cy="195.6" r="12.1"/>
						
							<linearGradient id="SVGID_19_" gradientUnits="userSpaceOnUse" x1="3287.3118" y1="393.5" x2="3441.0117" y2="393.5" gradientTransform="matrix(-1 0 0 1 3697.3118 -294)">
							<stop  offset="0" style="stop-color:#FBC9BD"/>
							<stop  offset="1" style="stop-color:#FEF2EF"/>
						</linearGradient>
						<path class="st14" d="M395.8,61.4H270.5c-7.8,0-14.2,6.3-14.2,14.2v47.8c0,7.8,6.3,14.2,14.2,14.2h125.3
							c7.8,0,14.2-6.3,14.2-14.2V75.6C409.9,67.7,403.6,61.4,395.8,61.4z"/>
						
							<linearGradient id="SVGID_20_" gradientUnits="userSpaceOnUse" x1="246.4679" y1="450.05" x2="252.2101" y2="450.05" gradientTransform="matrix(1 0 0 1 0 -294)">
							<stop  offset="0" style="stop-color:#1B8267"/>
							<stop  offset="1" style="stop-color:#0C573C"/>
						</linearGradient>
						<path class="st15" d="M250.4,143.8h-3.9v24.5h3.9c1,0,1.8-0.8,1.8-1.8v-20.9C252.2,144.6,251.4,143.8,250.4,143.8z"/>
						
							<linearGradient id="SVGID_21_" gradientUnits="userSpaceOnUse" x1="3445.1016" y1="459.7499" x2="3450.844" y2="459.7499" gradientTransform="matrix(-1 0 0 1 3697.3118 -294)">
							<stop  offset="0" style="stop-color:#0C573C"/>
							<stop  offset="1" style="stop-color:#1B8267"/>
						</linearGradient>
						<path class="st16" d="M252.2,163.2h-5.7v5.1h3c1.5,0,2.7-1.2,2.7-2.7V163.2z"/>
					</g>
				</g>
				<g>
					
						<linearGradient id="SVGID_22_" gradientUnits="userSpaceOnUse" x1="2325.6904" y1="265.9412" x2="2325.6904" y2="485.2488" gradientTransform="matrix(-1 0 0 1 2290.6904 -294)">
						<stop  offset="3.547484e-07" style="stop-color:#F36D4E"/>
						<stop  offset="0.2373" style="stop-color:#F06B4B"/>
						<stop  offset="0.4786" style="stop-color:#EA6343"/>
						<stop  offset="0.7218" style="stop-color:#E25636"/>
						<stop  offset="0.965" style="stop-color:#D84428"/>
						<stop  offset="1" style="stop-color:#D74127"/>
					</linearGradient>
					<polygon class="st17" points="-137.6,198.8 67.6,198.8 67.6,53.4 -137.6,53.4 					"/>
					
						<radialGradient id="SVGID_23_" cx="-35" cy="356.3647" r="83.264" gradientTransform="matrix(1 0 0 1 0 -294)" gradientUnits="userSpaceOnUse">
						<stop  offset="0" style="stop-color:#1B8267"/>
						<stop  offset="1" style="stop-color:#0C573C"/>
					</radialGradient>
					<polygon class="st18" points="-152.7,65.9 82.7,65.9 82.7,58.9 -152.7,58.9 					"/>
					
						<linearGradient id="SVGID_24_" gradientUnits="userSpaceOnUse" x1="2325.6904" y1="265.9411" x2="2325.6904" y2="485.2491" gradientTransform="matrix(-1 0 0 1 2290.6904 -294)">
						<stop  offset="3.547484e-07" style="stop-color:#F36D4E"/>
						<stop  offset="0.2373" style="stop-color:#F06B4B"/>
						<stop  offset="0.4786" style="stop-color:#EA6343"/>
						<stop  offset="0.7218" style="stop-color:#E25636"/>
						<stop  offset="0.965" style="stop-color:#D84428"/>
						<stop  offset="1" style="stop-color:#D74127"/>
					</linearGradient>
					<polygon class="st19" points="82.7,58.9 -35,-53.6 -152.7,58.9 					"/>
					
						<linearGradient id="SVGID_25_" gradientUnits="userSpaceOnUse" x1="-137.6" y1="478.95" x2="67.6" y2="478.95" gradientTransform="matrix(1 0 0 1 0 -294)">
						<stop  offset="0" style="stop-color:#D74127"/>
						<stop  offset="3.499215e-02" style="stop-color:#D84428"/>
						<stop  offset="0.2782" style="stop-color:#E25636"/>
						<stop  offset="0.5214" style="stop-color:#EA6343"/>
						<stop  offset="0.7627" style="stop-color:#F06B4B"/>
						<stop  offset="1" style="stop-color:#F36D4E"/>
					</linearGradient>
					<polygon class="st20" points="-137.6,198.8 67.6,198.8 67.6,171.1 -137.6,188.7 					"/>
					
						<radialGradient id="SVGID_26_" cx="18.7" cy="437.7" r="44.5666" gradientTransform="matrix(1 0 0 1 0 -294)" gradientUnits="userSpaceOnUse">
						<stop  offset="0" style="stop-color:#1B8267"/>
						<stop  offset="1" style="stop-color:#0C573C"/>
					</radialGradient>
					<polygon class="st21" points="-11.9,198.8 49.3,198.8 49.3,88.6 -11.9,88.6 					"/>
					
						<linearGradient id="SVGID_27_" gradientUnits="userSpaceOnUse" x1="33.2477" y1="439.9" x2="39.4476" y2="439.9" gradientTransform="matrix(1 0 0 1 0 -294)">
						<stop  offset="3.547484e-07" style="stop-color:#F36D4E"/>
						<stop  offset="0.2373" style="stop-color:#F06B4B"/>
						<stop  offset="0.4786" style="stop-color:#EA6343"/>
						<stop  offset="0.7218" style="stop-color:#E25636"/>
						<stop  offset="0.965" style="stop-color:#D84428"/>
						<stop  offset="1" style="stop-color:#D74127"/>
					</linearGradient>
					<path class="st22" d="M33.2,145.9c0,1.7,1.4,3.1,3.1,3.1s3.1-1.4,3.1-3.1c0-1.7-1.4-3.1-3.1-3.1S33.2,144.2,33.2,145.9z"/>
				</g>
				<g>
					
						<linearGradient id="SVGID_28_" gradientUnits="userSpaceOnUse" x1="151.0551" y1="536.1985" x2="187.7777" y2="536.1985" gradientTransform="matrix(0.9983 -1.160655e-02 -1.160655e-02 0.9204 -8.1672 -350.0002)">
						<stop  offset="0" style="stop-color:#1B8267"/>
						<stop  offset="1" style="stop-color:#0C573C"/>
					</linearGradient>
					<path class="st23" d="M168.8,125.1l4.1,28.3c0.5,3.5-1.9,6.7-5.4,7.2l-19.5,2.8c-3.5,0.5-6.7-1.9-7.2-5.4l-4.1-28.3
						c-0.5-3.5,1.9-6.7,5.4-7.2l19.5-2.8C165,119.2,168.2,121.6,168.8,125.1z"/>
					
						<linearGradient id="SVGID_29_" gradientUnits="userSpaceOnUse" x1="455.1626" y1="614.7751" x2="466.0238" y2="614.7751" gradientTransform="matrix(0.9797 0.2005 -0.2005 0.9797 -155.298 -548.1002)">
						<stop  offset="0" style="stop-color:#F8A391"/>
						<stop  offset="1" style="stop-color:#FBDDD7"/>
					</linearGradient>
					<path class="st24" d="M178,144.2c-2.3-0.3-9.2-2.8-9.6-2.9c-0.5,0.6-0.6,2.1,1.1,2.7c1.9,0.9,2.7,1,2.5,1.5s-0.1,6.2,1.3,5.4
						s4.6-3.2,4.6-3.2C178,146.5,178,144.2,178,144.2z"/>
					
						<linearGradient id="SVGID_30_" gradientUnits="userSpaceOnUse" x1="440.9923" y1="630.7917" x2="461.8571" y2="630.7917" gradientTransform="matrix(0.9797 0.2005 -0.2005 0.9797 -155.298 -548.1002)">
						<stop  offset="0" style="stop-color:#F8A391"/>
						<stop  offset="1" style="stop-color:#FBDDD7"/>
					</linearGradient>
					<path class="st25" d="M169.2,157.2c-3.1,0-5.2,0.3-7.1-1.9c-2.6-1-5.5-1.8-6-1.8c-0.5,1.6,2.7,2.6,4.1,3.3c-1.6,0.7-9,1.8-10,2
						c-0.7,1,1.1,1.5,1.8,1.4c0.7-0.1,5.1-0.3,5.1-0.3c-3.3,0.7-7,1.1-7.1,1.4c-0.1,0.3-0.1,1.2,1.1,1.3c0.7,0.1-0.1,0.6,0.3,0.8
						c0.4,1,2.6,0.5,2.6,0.5c0.1,1,1.6,2,3.5,1.5c3.1-0.6,13.2-3.3,13.2-3.3C169.7,160.1,169.2,157.2,169.2,157.2z"/>
					
						<linearGradient id="SVGID_31_" gradientUnits="userSpaceOnUse" x1="2003.507" y1="392.7354" x2="2015.6733" y2="392.7354" gradientTransform="matrix(-1 0 0 1 2203.093 -294)">
						<stop  offset="0" style="stop-color:#F8A391"/>
						<stop  offset="1" style="stop-color:#FBDDD7"/>
					</linearGradient>
					<path class="st26" d="M196.7,93c-0.1,2,1.3,6.7,2.9,8.4c-0.5,2.9-8.8,5.1-8.8,5.1c0.2-2.1-3.4-9.3-3.4-9.3
						c0.8-5.3,5.1-6.7,6.1-6.1C194.5,91.7,196.7,93,196.7,93z"/>
					
						<linearGradient id="SVGID_32_" gradientUnits="userSpaceOnUse" x1="2009.7196" y1="384.9958" x2="2022.9803" y2="384.9958" gradientTransform="matrix(-1 0 0 1 2203.093 -294)">
						<stop  offset="0" style="stop-color:#F8A391"/>
						<stop  offset="1" style="stop-color:#FBDDD7"/>
					</linearGradient>
					<path class="st28" d="M180.7,83.4c-0.4,1.4,0.3,4.7,0.3,5.6s-1.1,4.9-0.9,5.3c1,0.7,2,0.6,2,0.6c0.2,1.4,1.5,5.4,3.9,5.5
						c1.7-0.1,5.6-2.6,5.8-3.9c0.1-3-0.2-4.2,0.2-5.3c0.5-1,2-5.3,1-5.8s-7-4-8.1-3.8C183.8,82,180.7,83.4,180.7,83.4z"/>
					<path class="st43" d="M190.7,108.9c-0.3-0.9-0.8-1.3-0.3-4.1c2-1.3,8.3-5.4,8.3-5.4c0.9,1.2,2.1,2.9,2.4,4.1
						C196.4,106.1,190.7,108.9,190.7,108.9z"/>
					
						<linearGradient id="SVGID_34_" gradientUnits="userSpaceOnUse" x1="463.7132" y1="607.7446" x2="482.7291" y2="607.7446" gradientTransform="matrix(0.9797 0.2005 -0.2005 0.9797 -155.298 -548.1002)">
						<stop  offset="0" style="stop-color:#F8B7A6"/>
						<stop  offset="1" style="stop-color:#F36D4E"/>
					</linearGradient>
					<path style="fill:url(#SVGID_34_);" d="M176.7,142.6c4.4-1.4,15.7-7.7,15.7-7.7c2.8,0,7.9,5.9-0.1,10.5c-1.3,0.8-6.5,3.5-8,3.6
						c-3.6,0.2-5.3,0.2-7.3-0.2C176.6,145.2,176.1,144.2,176.7,142.6z"/>
					<path class="st43" d="M196.1,165.7c1.4,9.5,6.5,51.2,11.6,63.6c5.1,12.4,13,38,13,38c5.9-2.7,11.3-4.3,11.3-4.3
						c-5.1-28.6-8.3-46.3-11.3-52.4c1-13.5,3.9-46.3,1.7-55.1C207.4,164.5,196.1,165.7,196.1,165.7z"/>
					<path class="st43" d="M194,165.7c-1.2,9.5-7.3,36.6-2,102.3c4.3,0.4,11.2,0,11.2,0c1.5-15.8,4.8-56.6,4.8-56.6
						C206.3,187.4,197.3,160.3,194,165.7z"/>
					
						<linearGradient id="SVGID_35_" gradientUnits="userSpaceOnUse" x1="189.033" y1="429.8425" x2="223.2206" y2="429.8425" gradientTransform="matrix(1 0 0 1 0 -294)">
						<stop  offset="0" style="stop-color:#F8B7A6"/>
						<stop  offset="1" style="stop-color:#F36D4E"/>
					</linearGradient>
					<path class="st30" d="M200.6,102.2c5.3,1.9,24.6,21.9,22.5,62.7c-5.6,2.9-20.1,6.3-29.5,3.6c-1.3-16.6-7.1-33.6-3.2-60.4
						C196.4,105,199.2,103.1,200.6,102.2z"/>
					
						<linearGradient id="SVGID_36_" gradientUnits="userSpaceOnUse" x1="458.2395" y1="601.9711" x2="491.3932" y2="601.9711" gradientTransform="matrix(0.9797 0.2005 -0.2005 0.9797 -155.298 -548.1002)">
						<stop  offset="0" style="stop-color:#F8B7A6"/>
						<stop  offset="1" style="stop-color:#F36D4E"/>
					</linearGradient>
					<path class="st31" d="M170,163.2c8.8-1.4,43.7-8.4,37-50.2c-0.1-0.6-2-2.5-2.4-2.9c-2.2-1.9-7.3-0.5-8,12.7
						c-0.2,4.5-1.1,8.9-2.9,13.1c-3.9,9.2-8.9,17.4-25.4,20.5C168.1,159.6,169,161.8,170,163.2z"/>
					<path class="st43" d="M231.1,262.3c1.3,2.4,6,10.2,6.3,12.6c-1,1.1-5.6,2.7-5.6,2.7c-0.2-0.7-1.2-1.5-1.2-1.5
						c-1.5,1.1-5,3.5-7,3.8c-3.3,0-12.5,0-12.5,0s-0.1-4.1,8.5-4.7c2.5-2.9,3.4-7,2.8-10.2C224.9,264.6,231.1,262.3,231.1,262.3z"/>
					<path class="st43" d="M202.2,267.2c0.3,2.2,2.3,9.9,2,12.8c-4,0-6.7,0-6.7,0c0-1.2-0.2-2.1-3.5,0c-5.4,0-16.3,0-16.3,0
						c0.2-2.1,1.9-3.5,6.1-3.8s10.1-5.9,9.9-9C196.5,267.2,202.2,267.2,202.2,267.2z"/>
					<path class="st43" d="M196.8,94.1c0.9-2.2,5.2-5.1,2.6-8.9c-0.3-2.1,1.3-3.3,1.3-3.3c0-1.3-3.5-7-3.7-7
						c-3.1,0.3-5.8-0.4-5.8-0.4c-1.9-2.1-2.7-2.5-4.8-1.3c-2.1,1.2-3.8,3.1-5.4,1.7s-2-0.4-2.1,0c-0.1,0.5,0.2,3.7,0.4,3.8
						c-2.1,0.4-2.9-0.1-0.6,2.6c1.4,1.5,0.7,2.4,0.7,2.4c-0.1,0.7,2,0.7,2,0.7c2.8-0.5,4.6-1.8,4.6-1.8c0.4,2.5,0.4,3.9,1.8,3.7
						c1.5-0.2,3.6-1.9,4.4,2c0.1,2-1.2,3.2-1.2,3.2C192.6,92.6,192.8,94.9,196.8,94.1z"/>
					<circle cx="183.1" cy="89.6" r="0.6"/>
					<g>
						<path d="M184.7,88.6c-0.5-0.1-1-0.2-1.4-0.2l-1.4-0.3c0.5-0.3,1-0.3,1.5-0.2c0.3,0.1,0.5,0.1,0.7,0.3
							C184.3,88.2,184.6,88.3,184.7,88.6z"/>
					</g>
					<g>
						<path d="M183.3,94.2c-0.2,0.3-0.5,0.3-0.8,0.3s-0.6,0-0.8-0.2c0.3-0.1,0.6,0,0.8-0.1c0.1,0,0.3,0,0.4,0
							C183,94.2,183.1,94.2,183.3,94.2z"/>
					</g>
					<g>
						<path d="M184.8,95.8c0.1,0.2,0.1,0.5-0.1,0.8c-0.1,0.2-0.4,0.4-0.6,0.5s-0.5,0.1-0.7,0.1s-0.5,0-0.7-0.2
							c0.5-0.2,0.9-0.3,1.2-0.4C184.3,96.5,184.6,96.3,184.8,95.8z"/>
					</g>
					<g>
						<path d="M190.3,89.6c-0.3-0.3-0.5-0.4-0.7-0.7c-0.2-0.3-0.2-0.8,0-1.1c0.2,0.3,0.3,0.6,0.5,0.8c0.1,0.1,0.2,0.3,0.2,0.4
							C190.3,89.2,190.4,89.4,190.3,89.6z"/>
					</g>
				</g>
				<g>
					<g>
						<g>
							
								<linearGradient id="SVGID_37_" gradientUnits="userSpaceOnUse" x1="131.1" y1="464.3481" x2="136.7793" y2="464.3481" gradientTransform="matrix(1 0 0 1 0 -294)">
								<stop  offset="0" style="stop-color:#F8A391"/>
								<stop  offset="1" style="stop-color:#FBDDD7"/>
							</linearGradient>
							<path class="st32" d="M131.1,170c1.4-1.1,3.4-1.4,5.1-0.8c0.1,0,0.3,0.1,0.4,0.2c0.3,0.2,0.2,0.7,0,0.9
								c-0.2,0.3-0.6,0.4-1,0.4c-1.4,0.4-2.9,0.7-4.3,1.1"/>
						</g>
						<g>
							
								<linearGradient id="SVGID_38_" gradientUnits="userSpaceOnUse" x1="131.1367" y1="467.3859" x2="143.6909" y2="467.3859" gradientTransform="matrix(1 0 0 1 0 -294)">
								<stop  offset="0" style="stop-color:#F8A391"/>
								<stop  offset="1" style="stop-color:#FBDDD7"/>
							</linearGradient>
							<path class="st33" d="M132.5,171.6c2.6,0.8,5.3,1.2,8,1.1c0.8,0,1.7-0.1,2.5,0.2c0.4,0.1,0.7,0.4,0.8,0.8
								c0.1,0.6-0.6,0.9-1.1,1c-3.7,1-8,0.4-11.4-1.7"/>
						</g>
						<g>
							
								<linearGradient id="SVGID_39_" gradientUnits="userSpaceOnUse" x1="129.9878" y1="467.1599" x2="140.7571" y2="467.1599" gradientTransform="matrix(1 0 0 1 0 -294)">
								<stop  offset="0" style="stop-color:#F8A391"/>
								<stop  offset="1" style="stop-color:#FBDDD7"/>
							</linearGradient>
							<path class="st34" d="M140.8,174.3c-0.8,1-1.7,2-3,2.1c-0.7,0.1-1.4-0.2-2.1-0.4c-1.9-0.7-4-1.4-5.2-3.1
								c-0.7-0.9-0.9-2.3,0-3"/>
						</g>
						<g>
							
								<linearGradient id="SVGID_40_" gradientUnits="userSpaceOnUse" x1="130.369" y1="467.8507" x2="136.8444" y2="467.8507" gradientTransform="matrix(1 0 0 1 0 -294)">
								<stop  offset="0" style="stop-color:#F8A391"/>
								<stop  offset="1" style="stop-color:#FBDDD7"/>
							</linearGradient>
							<path class="st35" d="M136.8,175.5c-1,1.3-3.3,1.3-4.7,0.2c-1.4-1.1-2-2.9-1.7-4.5"/>
						</g>
					</g>
					
						<linearGradient id="SVGID_41_" gradientUnits="userSpaceOnUse" x1="88.569" y1="456.85" x2="132.7903" y2="456.85" gradientTransform="matrix(1 0 0 1 0 -294)">
						<stop  offset="0" style="stop-color:#1B8267"/>
						<stop  offset="1" style="stop-color:#0C573C"/>
					</linearGradient>
					<path class="st36" d="M93.7,149.1c5.4,5.1,16.3,16.6,18.3,18.4s17.6,1.5,18.9,1.9c3.3,2.6,1.1,7.2,1.1,7.2
						c-5.1-0.2-14.9-0.1-20.8-0.1c-2.8,0-5.4-0.9-7.6-2.7c-5.2-4.3-15.3-11.3-15.1-11.6C88.6,157.7,93.7,149.1,93.7,149.1z"/>
					<g>
						<g>
							<g>
								<path class="st52" d="M92.1,118.8c0.5,2.3,0.9,4.5,1.4,6.8c2.4-0.8,4.2-2.6,4.4-4.8c0.2-2.2-1-4.5-3.3-6.1"/>
							</g>
							<g>
								<path class="st52" d="M78,132.5c-2,0.5-4.1-0.3-5.5-1.7c-1.4-1.4-2.3-3.2-2.8-5.1c-1.2-4.4-0.4-9.6,3.2-12.4
									c1.3-1,2.8-1.7,4.2-2.6c1.5-0.9,2.7-2.1,4.2-3s3.3-1.4,5-0.9c1.2,0.4,2.3,1.4,3.6,1.5c0.6,0,1.2-0.1,1.8,0
									c0.9,0.1,1.6,0.7,2.1,1.4c2.3,2.8,2.4,6.7,2.1,10.3c-0.1,1.1-0.2,2.2-0.5,3.2c-0.5,1.4-1.5,2.5-2.4,3.7
									c-1.9,2.2-4.2,4.6-7.1,4.5"/>
							</g>
							<g>
								<g>
									
										<linearGradient id="SVGID_42_" gradientUnits="userSpaceOnUse" x1="76.752" y1="432.6009" x2="87.0958" y2="432.6009" gradientTransform="matrix(1 0 0 1 0 -294)">
										<stop  offset="0" style="stop-color:#F8A391"/>
										<stop  offset="1" style="stop-color:#FBDDD7"/>
									</linearGradient>
									<path class="st37" d="M77.6,144.1c-0.7-0.6-1-1.6-0.8-2.7c0.6-2.6,1.5-6.3,1.9-8c0.2-0.7,0.3-1.4,0.5-2.1
										c0-0.2,0.1-0.3,0.2-0.4s0.2-0.1,0.3-0.1c1.1,0,2,0.9,3,1.4c1.2,0.6,2.6,0.6,3.9,1.2c0.1,0.1,0.3,0.2,0.4,0.3
										c0,0.1,0,0.2,0,0.3c-0.3,2.1-1.1,6.5-1.6,9.1c-0.1,0.6-0.4,1.1-0.8,1.5l-1.2,1c-1.2,1-2.9,1.1-4,0.1L77.6,144.1z"/>
								</g>
							</g>
							<g>
								<g>
									
										<linearGradient id="SVGID_43_" gradientUnits="userSpaceOnUse" x1="74.9913" y1="419.9465" x2="77.4972" y2="419.9465" gradientTransform="matrix(1 0 0 1 0 -294)">
										<stop  offset="0" style="stop-color:#F8A391"/>
										<stop  offset="1" style="stop-color:#FBDDD7"/>
									</linearGradient>
									<path class="st38" d="M77.5,128.1c-1.3-0.3-2.4-1.3-2.5-2.3c-0.1-1.1,1.1-2.1,2.5-2"/>
								</g>
							</g>
							<g>
								
									<linearGradient id="SVGID_44_" gradientUnits="userSpaceOnUse" x1="76.9764" y1="421.0662" x2="94.8866" y2="421.0662" gradientTransform="matrix(1 0 0 1 0 -294)">
									<stop  offset="0" style="stop-color:#F8A391"/>
									<stop  offset="1" style="stop-color:#FBDDD7"/>
								</linearGradient>
								<path class="st39" d="M94.5,129c-0.6-0.5-0.7-1.5-0.7-1.6c0-0.6-0.1-0.8-0.1-1.1c0.1-0.5,0.1-1,0.1-1.4c0-0.1,0-0.1,0-0.2
									v0.1c0.1-1.3,0-2.7-0.5-4c-0.7-1.8-2.2-3.6-4.4-4.2c-2.7-0.8-5.6,0.3-7.7,1.9c-3,2.3-4.9,5.9-4.2,9.4l0.1,0.7
									c0.8,5.8,4.5,6.9,8.4,8.7c0.7,0.3,1.9,0.5,2.6,0.5c1.9,0,3-1.8,3.5-3.3c0.5-1.2,0.8-2.5,1.2-3.7c0.2,0.1,0.5,0.1,0.7,0.1
									c0.4,0,0.6-0.1,0.9-0.3C95,130.3,95,129.4,94.5,129z"/>
							</g>
							<g>
								<path class="st52" d="M88.6,123.1c-0.1,0,0,0.2,0.1,0.2s0.2,0,0.3,0c1-0.3,2.1-0.2,3,0.3c0.1,0.1,0.3,0.2,0.4,0.2
									c0.2,0,0.3-0.1,0.4-0.2c0-0.1,0-0.1,0-0.2c-0.1-0.2-0.4-0.4-0.6-0.6c-0.8-0.5-1.8-0.6-2.7-0.3
									C89.1,122.7,88.8,122.9,88.6,123.1"/>
							</g>
							<path class="st52" d="M90.1,125.4c0,0.5,0.3,0.9,0.6,0.9c0.4,0,0.7-0.3,0.8-0.8c0-0.5-0.3-0.9-0.6-0.9
								C90.5,124.6,90.2,124.9,90.1,125.4z"/>
							<g>
								<g>
									<path class="st56" d="M90.7,134.7c-0.2-0.1-0.4-0.3-0.6-0.4c-0.5-0.5-0.8-1.2-0.9-1.9c0.6,0.2,0.9,0.2,1.6,0.4
										c0.1,0,0.5,0.2,0.7,0.3c0.2,0.1,0.4,0.2,0.6,0.3c0,0,0,0.1,0,0.2c-0.2,0.6-0.4,1-0.6,1.6"/>
								</g>
								<g>
									<path class="st57" d="M92.1,133.6c0-0.1,0.1-0.2,0.1-0.2c-0.1-0.1-0.4-0.2-0.6-0.3c-0.2-0.1-0.6-0.3-0.7-0.3
										c-0.7-0.2-0.9-0.2-1.5-0.4c0.6,0.7,1.4,1.1,2.3,1.5C91.8,134,92,134,92,134C92,133.9,92.1,133.8,92.1,133.6z"/>
								</g>
								<g>
									<path class="st58" d="M89.9,133.8c-0.1,0-0.2-0.1-0.2-0.1c0.1,0.2,0.3,0.4,0.5,0.5c0.2,0.2,0.4,0.3,0.6,0.4
										c0.3,0.2,0.9,0.5,0.9,0.5c0.1-0.2,0.1-0.3,0.2-0.4C91.3,134.3,90.6,134,89.9,133.8z"/>
								</g>
							</g>
							<g>
								<path class="st52" d="M78.7,121.8c3.7,1.7,8.3,1.5,11.8-0.6c1.5-0.9,2.8-2.1,3.5-3.7c0.6-1.6,0.5-3.6-0.7-4.8
									c-1.4-1.5-3.8-1.5-5.9-1.1c-4.3,0.9-8.2,3.5-10.8,7.1"/>
							</g>
						</g>
						<g>
							
								<linearGradient id="SVGID_45_" gradientUnits="userSpaceOnUse" x1="73.2449" y1="472.6154" x2="95.0543" y2="472.6154" gradientTransform="matrix(1 0 0 1 0 -294)">
								<stop  offset="0" style="stop-color:#1B8267"/>
								<stop  offset="1" style="stop-color:#0C573C"/>
							</linearGradient>
							<path class="st40" d="M79.2,213.7c3.3-0.8,6.7-1.6,10-2.4c-1.6-13-0.8-26.4,2.5-39.1c1.7-6.5,4-13.2,3.3-19.9
								c-0.3-2.4-2.3-6.3-5.6-8.2c-12.5-7.7-3.5,0.8-5.5,2.8s-2.1,5.3-3,8.1c-6.4,19.5-8.8,40.6-7,61.3"/>
						</g>
						<g>
							<g>
								<g>
									<path class="st43" d="M46.7,258.4c-1.5,1.2-2.7,3-4.2,4.2c-0.3,0.2-1.2,1.6-1.4,1.9c-0.8,1.2-0.2,2.8-0.6,4.2
										c0,0.1-0.1,0.3-0.2,0.4c-0.4,0.3-0.9,0-1.3-0.3c-1.1-0.9-2.1-1.8-3.2-2.7c-0.4-0.3-0.8-0.8-0.8-1.3c0-0.2,0.2-0.4,0.3-0.6
										c2.1-2.9,4.3-8,6.4-10.9"/>
								</g>
								<g>
									<path class="st43" d="M46.7,280.9c-2.8-1.8-5.1-3.3-7.9-5.1c-0.9-0.5-1.7-1.1-2.2-2.1c-0.2-0.5-0.4-1.2-0.9-1.4
										c-0.4-0.2-0.9,0-1.3,0c-0.4,0-0.7-0.3-1-0.5c-1-0.6-1.9-1.3-2.9-1.9c-0.3-0.2-0.7-0.5-0.7-0.9c-0.1-0.5,0.2-0.9,0.5-1.3
										c1.2-1.6,2.6-3,4.1-4.2c0.3-0.3,0.8-0.6,1.2-0.5s0.5,0.5,0.7,0.9c0.6,1.4,1.7,2.9,3.2,2.8c0.4,0,0.8-0.2,1.2-0.1
										c0.4,0.1,0.8,0.4,1.1,0.7c2.6,2.7,4.8,5.9,6.5,9.3c0.4,0.8,0.8,1.6,0.7,2.5c-0.1,0.9-0.8,1.9-1.7,1.9"/>
								</g>
							</g>
							<g>
								<g>
									<path class="st43" d="M89.3,260.8c-0.5,1.8-0.4,4-0.9,5.9c-0.1,0.4,0,2,0,2.4c0,1.4,1.5,2.4,1.9,3.8c0,0.1,0.1,0.3,0.1,0.5
										c-0.1,0.5-0.7,0.6-1.2,0.5c-1.4-0.1-2.8-0.2-4.2-0.3c-0.5,0-1.1-0.1-1.4-0.6c-0.1-0.2-0.1-0.5-0.1-0.7
										c0-3.6-1.2-9-1.3-12.6"/>
								</g>
								<g>
									<path class="st43" d="M102.2,279.3c-3.4,0.1-6.2,0.1-9.6,0.2c-1,0-2.1,0-3-0.5c-0.5-0.3-1-0.7-1.6-0.6
										c-0.4,0.1-0.7,0.5-1.2,0.6c-0.4,0.2-0.8,0.2-1.1,0.2c-1.2,0-2.4,0-3.6,0c-0.4,0-0.8,0-1.1-0.3c-0.3-0.3-0.4-0.8-0.3-1.3
										c0.1-1.8,0.5-3.5,1.1-5.2c0.1-0.4,0.3-0.8,0.7-0.9c0.4-0.1,0.7,0.1,1.1,0.3c1.3,0.8,3.1,1.3,4.4,0.4c0.3-0.2,0.6-0.5,1-0.7
										s0.9-0.1,1.3,0c3.8,0.7,7.4,2,10.8,3.6c0.8,0.4,1.6,0.8,2,1.5c0.5,0.7,0.4,1.8-0.3,2.3"/>
								</g>
							</g>
							<g>
								<g>
									<path class="st43" d="M89.7,265.9c1-9.9,1.9-19.8,2.9-29.7c0.3-3.2,0.6-6.4,0.4-9.6c-0.4-5.6-2.3-10.9-4.1-16.2
										c-2.1-5.9-5.6-11.8-6.3-17.8c-0.2-1.4-1-2.8-2.3-3.5c-1.5-0.8-3.3-0.4-4.9,0.1c-3.7,1.2-7.3,2.3-11,3.5
										c-0.7,0.2-1.5,0.5-2,1.1c-0.5,0.7-0.4,1.7-0.3,2.6c1.8,12.7,5.5,18.9,13.4,29c1.3,1.6,3,5.8,3.8,7.8c0.6,1.7,1.1,7.2,1.3,9
										c0.6,8.7,1.2,15.6,1.8,24.3C82.4,266.5,87,266.1,89.7,265.9z"/>
								</g>
								<g>
									<path class="st43" d="M67.8,197.1c2.6,5.8,2,12.3,0.9,18.7c-1.5-2.5-2.8-5-3.8-7.7C65.6,204.3,66.6,200.7,67.8,197.1z"/>
								</g>
								<g>
									<path class="st43" d="M42.9,264.6c5.7-6.5,11.3-13.1,16.9-19.8c2.7-3.2,5.4-6.6,6.7-10.6c1.1-3.3,1.2-6.9,1.3-10.4
										c0.2-11.5,0.3-22.9,0.2-34.4c-7.3-0.6-8.4,2.1-15.7,1.5c-0.6,13.1-5.2,23-1.4,35.6c0.7,2.4,1.5,5,1,7.5
										c-0.3,1.4-1.1,2.7-1.9,4c-3.6,6-7.2,11.9-10.8,17.9c-0.9,1.4-2.6,4.2-2.6,4.2L42.9,264.6z"/>
								</g>
							</g>
						</g>
						<g>
							<g>
								
									<linearGradient id="SVGID_46_" gradientUnits="userSpaceOnUse" x1="51.2375" y1="461.7078" x2="90.3436" y2="461.7078" gradientTransform="matrix(1 0 0 1 0 -294)">
									<stop  offset="0" style="stop-color:#F8B7A6"/>
									<stop  offset="1" style="stop-color:#F36D4E"/>
								</linearGradient>
								<path class="st41" d="M55.6,193.4c8.1,2.8,17.8,3.9,27.2,0.4c1.2-12.9,5.4-25.1,7.4-37.9c0.5-3.1-0.6-7.2-1.8-10.1
									c-2.1-5.5-9-7.1-14.3-6.1s-6,5.4-9.7,9.8c-8,9.7-12.8,22.6-13.3,35.7"/>
							</g>
						</g>
						<g>
							
								<linearGradient id="SVGID_47_" gradientUnits="userSpaceOnUse" x1="45.8999" y1="470.5835" x2="78.8888" y2="470.5835" gradientTransform="matrix(1 0 0 1 0 -294)">
								<stop  offset="0" style="stop-color:#1B8267"/>
								<stop  offset="1" style="stop-color:#0C573C"/>
							</linearGradient>
							<path class="st42" d="M47.3,213.4c5,1.3,11,1.2,16.2,1c5-23.2,11.2-39.1,15.3-63.1c0.5-3-0.1-10.9-2.6-11.9
								c-13.1-5.2-21.8,17.8-25.4,31.5c-3.6,13.6-4.7,27.5-4.9,41.8"/>
						</g>
						<g>
							<g>
								
									<linearGradient id="SVGID_48_" gradientUnits="userSpaceOnUse" x1="87.9999" y1="491.0999" x2="97.1257" y2="491.0999" gradientTransform="matrix(1 0 0 1 0 -294)">
									<stop  offset="0" style="stop-color:#F8A391"/>
									<stop  offset="1" style="stop-color:#FBDDD7"/>
								</linearGradient>
								<path class="st44" d="M97.1,197.6c-2.8-2.7-3.8-3.7-6.4-6.7c-0.8,0.9-1.5,1.7-2.3,2.6c-0.2,0.2-0.4,0.5-0.4,0.8
									c0,0.2,0.1,0.5,0.2,0.7c0.9,2,0.4,6.3,1.2,8.3"/>
							</g>
							<g>
								
									<linearGradient id="SVGID_49_" gradientUnits="userSpaceOnUse" x1="58.6979" y1="461.3237" x2="91.4401" y2="461.3237" gradientTransform="matrix(1 0 0 1 0 -294)">
									<stop  offset="0" style="stop-color:#1B8267"/>
									<stop  offset="1" style="stop-color:#0C573C"/>
								</linearGradient>
								<path class="st45" d="M91.4,190.6c-6-6.4-11.3-12.1-17.3-17.9c-0.7-0.7-1.5-1.4-1.7-2.4c-0.2-0.9,0.2-1.8,0.5-2.7
									c1.9-5.1,3.3-10.5,4.1-15.9c0.6-4.3,0.5-9.5-3.6-11.4c-3-1.3-5.4-0.2-7.5,2.2c-2,2.4-4.3,5.6-4.9,8.7
									c-1.5,7.4-2.3,14.8-2.5,22.3c0,0.6,0,1.2,0.2,1.8c0.3,0.9,1.1,1.7,2,2.3c8.3,6.1,16,10.4,26.2,17.3"/>
							</g>
							<g>
								<g>
									
										<linearGradient id="SVGID_50_" gradientUnits="userSpaceOnUse" x1="83.1561" y1="533.9978" x2="103.7147" y2="533.9978" gradientTransform="matrix(1 0 0 1 0 -294)">
										<stop  offset="3.547484e-07" style="stop-color:#F36D4E"/>
										<stop  offset="0.2373" style="stop-color:#F06B4B"/>
										<stop  offset="0.4786" style="stop-color:#EA6343"/>
										<stop  offset="0.7218" style="stop-color:#E25636"/>
										<stop  offset="0.965" style="stop-color:#D84428"/>
										<stop  offset="1" style="stop-color:#D74127"/>
									</linearGradient>
									<path class="st46" d="M103.7,211c-0.1-6.1-3-11.9-9.6-12.5c-6.9-0.7-9.3,5.5-9.4,11.2c-0.3,14.4-0.6,28.8-0.9,43.2
										c-0.2,8.9-0.4,17.8-0.6,26.7c-0.1,2.6,3.9,2.6,4,0c0.4-15.6,0.7-31.3,1.1-46.9c0.2-7.8,0.3-15.6,0.5-23.4
										c0.1-3.3,0.9-7.1,5-6.8c4.5,0.3,5.9,4.7,5.9,8.6C99.7,213.6,103.7,213.6,103.7,211L103.7,211z"/>
								</g>
							</g>
							<g>
								
									<linearGradient id="SVGID_51_" gradientUnits="userSpaceOnUse" x1="88.569" y1="491.8372" x2="98.4036" y2="491.8372" gradientTransform="matrix(1 0 0 1 0 -294)">
									<stop  offset="0" style="stop-color:#F8A391"/>
									<stop  offset="1" style="stop-color:#FBDDD7"/>
								</linearGradient>
								<path class="st47" d="M98.4,199.7c-0.1-0.5-0.2-0.9-0.4-1.4c-0.4-1.4-1.5-2.6-2.5-3.7l-4.3-3l-2.6,3.7l0.3,2.2l0.4,2.7h0.9
									c0.1,0.5,0.2,1,0.3,1.6c0,0.1,0.1,0.3,0,0.5c-0.1,0.3-0.5,0.5-0.8,0.7c-0.1,0-0.2,0.1-0.2,0.2c-0.1,0.2,0,0.4,0.2,0.5
									c0.5,0.4,1.2,0.5,1.8,0.2c0.4-0.2,0.7-0.5,0.9-0.8c0.4,0.1,0.8,0.1,1.2,0c0.5-0.2,0.8-0.7,0.9-1.1c0.1,0,0.1,0.1,0.2,0.1
									c0.5,0.1,1,0.1,1.4-0.2c0.2-0.2,0.3-0.4,0.3-0.6c0.5,0.1,1.1,0,1.5-0.2c0.1-0.1,0.3-0.3,0.4-0.4
									C98.4,200.2,98.4,199.9,98.4,199.7z"/>
							</g>
						</g>
					</g>
				</g>
			</g>
		</g>
	</g>
</g>
<g transform="translate(764.901 302.854)">
	
		<linearGradient id="SVGID_52_" gradientUnits="userSpaceOnUse" x1="-1093.3157" y1="-355.227" x2="-1092.9717" y2="-355.1951" gradientTransform="matrix(101.3166 0 0 -48.7112 110302.7109 -17520.7578)">
		<stop  offset="0" style="stop-color:#86E3CE"/>
		<stop  offset="1" style="stop-color:#54D1B0"/>
	</linearGradient>
	<path class="st48" d="M-437.2-215.3l-2.5,4.4c-0.1,0.1-0.1,0.1-0.2,0.2c-8.3,5-18.1,7.1-27.8,5.8c-1.1-0.1-2.2-0.3-3.3-0.6
		c-5.6-1.2-10.8-3.5-15.5-6.7c-0.5-0.4-1.1-0.8-1.6-1.2c-0.3-0.2-0.3-0.6-0.1-0.8c0.2-0.2,0.5-0.3,0.8-0.2c3.3,1.6,6.8,2.9,10.3,3.6
		c3.9,0.8,7.9,1.1,12,0.9h0l0,0c0.2-0.1,0.3-0.2,0.5-0.3l2.7-4.9c0.2-0.3,0.1-0.7-0.2-0.8c-0.1-0.1-0.2-0.1-0.3-0.1
		c-3.9,0.2-7.9,0-11.7-0.9c-6.2-1.3-12.1-4-17.1-7.9c-0.3-0.2-0.3-0.6-0.1-0.8c0,0,0,0,0,0c0.2-0.2,0.5-0.3,0.8-0.2
		c3.3,1.6,6.7,2.9,10.3,3.6c7.6,1.6,15.6,1.2,23-1.4c0.1-0.1,0.2-0.2,0.3-0.3l1.2-2.1c2.4-4.2,7.2-6.3,11.9-5.2
		c1,0.2,1.9,0.6,2.7,1.1c1.6,0.9,3,2.2,3.9,3.8c0.3,0.5,0.5,0.9,0.7,1.5c0.1,0.3,0.2,0.5,0.3,0.8
		C-435.4-221-435.7-217.9-437.2-215.3z"/>
	
		<linearGradient id="SVGID_53_" gradientUnits="userSpaceOnUse" x1="-1091.8219" y1="-354.7675" x2="-1091.2755" y2="-354.6145" gradientTransform="matrix(78.1963 0 0 -49.2214 84894.3828 -17651.959)">
		<stop  offset="0" style="stop-color:#FF6D4A"/>
		<stop  offset="1" style="stop-color:#CF411F"/>
	</linearGradient>
	<path class="st49" d="M-441.1-207.4c0,0.1,0,0.2-0.1,0.2l-3.6,6.5l-4.9,8.6l-3.3,5.8c-2.9,5.2-9.4,7-14.6,4.1
		c-0.1-0.1-0.2-0.1-0.3-0.2c-0.1-0.1-0.2-0.1-0.3-0.2c-0.1,0-0.1-0.1-0.2-0.2c0,0,0,0,0,0c-0.1-0.1-0.2-0.1-0.3-0.2
		c-0.1-0.1-0.3-0.2-0.4-0.3c-0.1-0.1-0.2-0.1-0.3-0.2c-0.1-0.1-0.1-0.1-0.2-0.2c0,0,0,0,0,0l-0.2-0.2c-0.2-0.2-0.4-0.4-0.5-0.6
		c-0.1-0.1-0.2-0.2-0.2-0.3c-0.1-0.1-0.1-0.2-0.2-0.2c0,0-0.1-0.1-0.1-0.1c0,0-0.1-0.1-0.1-0.1c-0.1-0.1-0.2-0.2-0.2-0.3
		c0,0,0-0.1-0.1-0.1c0,0,0-0.1-0.1-0.1c-0.2-0.4-0.5-0.8-0.7-1.2c-0.1-0.1-0.1-0.2-0.1-0.3c0-0.1-0.1-0.1-0.1-0.2
		c0-0.1-0.1-0.1-0.1-0.2c-0.1-0.1-0.1-0.3-0.2-0.4c0-0.1,0-0.1-0.1-0.2c0-0.1-0.1-0.2-0.1-0.4c0-0.1-0.1-0.2-0.1-0.4
		c0-0.1-0.1-0.3-0.1-0.4c0-0.1,0-0.2-0.1-0.4c0,0,0-0.1,0-0.2c0-0.3-0.1-0.6-0.1-0.9c0,0,0-0.1,0-0.1c0-0.1,0-0.2,0-0.3
		c0-0.1,0-0.2,0-0.4c0-0.1,0-0.3,0-0.4c0-0.1,0-0.2,0-0.2c0-0.1,0-0.1,0-0.2c0-0.1,0-0.1,0-0.2l0-0.2c0-0.2,0-0.3,0.1-0.5
		c0-0.1,0-0.2,0-0.2c0-0.1,0-0.1,0-0.2c0-0.2,0.1-0.5,0.2-0.7c0,0,0-0.1,0-0.1c0-0.2-0.1-0.3-0.3-0.4c-3.5-1.4-6.8-3.3-9.8-5.6
		c-0.4-0.3-0.8-0.6-1.2-1c-0.2-0.2-0.2-0.4-0.1-0.6c0,0,0,0,0,0c0.1-0.2,0.4-0.2,0.6-0.1c4.8,2.4,8,3,12.1,3.7c0.1,0,0.1,0,0.2,0h0
		l0,0c0.1,0,0.1,0,0.2,0h0c0.1,0,0.3-0.1,0.3-0.2l1.9-3.5c0.1-0.2,0.3-0.2,0.4-0.2c1.6,0.2,3.2,0.3,4.8,0.3c7.6,0,15.1-2,21.6-5.8
		c0.2-0.1,0.5-0.1,0.6,0.2C-441.1-207.6-441.1-207.5-441.1-207.4z"/>
	
		<linearGradient id="SVGID_54_" gradientUnits="userSpaceOnUse" x1="-1092.9923" y1="-359.7028" x2="-1092.6798" y2="-359.8761" gradientTransform="matrix(95.5067 0 0 -36.7057 103920.2656 -13421.1816)">
		<stop  offset="0" style="stop-color:#86E3CE"/>
		<stop  offset="0.431" style="stop-color:#86E3CE"/>
		<stop  offset="1" style="stop-color:#54D1B0"/>
	</linearGradient>
	<path class="st50" d="M-437.2-215.3l-2.5,4.4c-0.1,0.1-0.1,0.1-0.2,0.2c-8.3,5-18.1,7.1-27.8,5.8c-1.1-0.1-2.2-0.3-3.3-0.6
		c-5.6-1.2-10.8-3.5-15.5-6.7c-0.5-0.4-1.1-0.8-1.6-1.2c-0.3-0.2-0.3-0.6-0.1-0.8c0.2-0.2,0.5-0.3,0.8-0.2c3.3,1.6,6.8,2.9,10.3,3.6
		c3.9,0.8,7.9,1.1,12,0.9h0l0,0c11-1.4,21.1-6.6,28.5-14.8c0.1,0.3,0.2,0.5,0.3,0.8C-435.4-221-435.7-217.9-437.2-215.3z"/>
	
		<linearGradient id="SVGID_55_" gradientUnits="userSpaceOnUse" x1="-1091.5806" y1="-354.871" x2="-1091.3313" y2="-354.915" gradientTransform="matrix(78.1845 0 0 -48.4273 84881.4922 -17380.7871)">
		<stop  offset="0" style="stop-color:#FF6D4A"/>
		<stop  offset="1" style="stop-color:#CF411F"/>
	</linearGradient>
	<path class="st51" d="M-441.1-207.4c0,0.1,0,0.2-0.1,0.2l-3.6,6.5l-4.9,8.6l-3.3,5.8c-2.9,5.2-9.4,7-14.6,4.1c0,0,0,0,0,0
		c-0.1-0.1-0.2-0.1-0.3-0.2c-0.1-0.1-0.2-0.1-0.3-0.2c-0.1,0-0.1-0.1-0.2-0.1c0,0,0,0,0,0c-0.1-0.1-0.2-0.1-0.3-0.2
		c-0.1-0.1-0.3-0.2-0.4-0.3c-0.1-0.1-0.2-0.1-0.2-0.2c-0.1-0.1-0.1-0.1-0.2-0.2c0,0,0,0,0,0c-0.1-0.1-0.1-0.1-0.2-0.2
		c-0.2-0.2-0.4-0.4-0.5-0.6c-0.1-0.1-0.2-0.2-0.2-0.3s-0.1-0.2-0.2-0.2c0,0-0.1-0.1-0.1-0.1c0,0-0.1-0.1-0.1-0.1
		c-0.1-0.1-0.2-0.2-0.2-0.3c0,0,0-0.1-0.1-0.1c0,0,0-0.1-0.1-0.1c-0.2-0.4-0.5-0.8-0.7-1.2c-0.1-0.1-0.1-0.2-0.1-0.3
		c0-0.1-0.1-0.1-0.1-0.2c0-0.1-0.1-0.1-0.1-0.2c-0.1-0.1-0.1-0.3-0.2-0.4c0-0.1,0-0.1-0.1-0.2c0-0.1-0.1-0.2-0.1-0.4
		c0-0.1-0.1-0.2-0.1-0.4c0-0.1-0.1-0.3-0.1-0.4c0-0.1,0-0.2-0.1-0.4c0-0.1,0-0.1,0-0.2c0-0.3-0.1-0.6-0.1-0.9c0,0,0-0.1,0-0.1
		c0-0.1,0-0.2,0-0.3c0-0.1,0-0.2,0-0.4c0-0.1,0-0.3,0-0.4c0-0.1,0-0.2,0-0.2c0-0.1,0-0.1,0-0.2c0-0.1,0-0.1,0-0.2c0-0.1,0-0.1,0-0.2
		c0-0.2,0-0.3,0.1-0.5c0-0.1,0-0.2,0-0.2c0-0.1,0-0.1,0-0.2c0-0.2,0.1-0.5,0.2-0.7c0,0,0-0.1,0-0.1c0-0.2-0.1-0.3-0.3-0.4
		c-3.5-1.4-6.8-3.3-9.8-5.6l0,0c-0.4-0.3-0.8-0.6-1.2-1c-0.2-0.2-0.2-0.4-0.1-0.6c0.1-0.2,0.4-0.2,0.6-0.1c4.8,2.4,8,3,12.1,3.7
		c0.1,0,0.1,0,0.2,0l0,0l0,0c0.1,0,0.1,0,0.2,0l0,0c0.7,0,1.4,0,2.1,0C-458.8-198.2-449.1-201.5-441.1-207.4z"/>
</g>
<g transform="translate(764.901 302.854)">
	
		<linearGradient id="SVGID_56_" gradientUnits="userSpaceOnUse" x1="-1095.4639" y1="-356.4065" x2="-1095.2999" y2="-356.3913" gradientTransform="matrix(100.2513 -14.6539 -7.0453 -48.199 106695.5859 -33398.25)">
		<stop  offset="0" style="stop-color:#86E3CE"/>
		<stop  offset="1" style="stop-color:#54D1B0"/>
	</linearGradient>
	<path class="st53" d="M-600.2-168.2l-0.9,2.3c0,0-0.1,0.1-0.1,0.1c-3.6,2.9-8.1,4.6-12.7,4.6c-0.5,0-1.1,0-1.6,0
		c-2.7-0.2-5.4-0.9-7.8-2.1c-0.3-0.1-0.6-0.3-0.8-0.4c-0.1-0.1-0.2-0.3-0.1-0.4c0.1-0.1,0.2-0.2,0.3-0.1c1.7,0.5,3.4,0.9,5.1,1
		c1.9,0.1,3.8,0,5.7-0.4l0,0l0,0c0.1-0.1,0.1-0.1,0.2-0.2l1-2.5c0.1-0.1,0-0.3-0.2-0.4c-0.1,0-0.1,0-0.2,0c-1.8,0.4-3.7,0.5-5.6,0.4
		c-3-0.2-6-1.1-8.6-2.5c-0.1-0.1-0.2-0.3-0.1-0.4c0,0,0,0,0,0c0.1-0.1,0.2-0.2,0.3-0.1c1.7,0.5,3.4,0.9,5.1,1
		c3.7,0.2,7.4-0.5,10.7-2.2c0-0.1,0.1-0.1,0.1-0.2l0.4-1.1c0.8-2.1,3-3.5,5.2-3.3c0.5,0,0.9,0.2,1.4,0.3c0.8,0.3,1.5,0.8,2.1,1.5
		c0.2,0.2,0.3,0.4,0.4,0.6c0.1,0.1,0.1,0.2,0.2,0.4C-599.8-171-599.7-169.5-600.2-168.2z"/>
	
		<linearGradient id="SVGID_57_" gradientUnits="userSpaceOnUse" x1="-1094.5139" y1="-355.6432" x2="-1094.2534" y2="-355.5703" gradientTransform="matrix(77.374 -11.3099 -7.1191 -48.7038 81535.4531 -29853.1387)">
		<stop  offset="0" style="stop-color:#FF6D4A"/>
		<stop  offset="1" style="stop-color:#CF411F"/>
	</linearGradient>
	<path class="st54" d="M-601.5-164.2c0,0,0,0.1,0,0.1l-1.3,3.3l-1.7,4.4l-1.1,3c-1,2.6-4,4-6.6,2.9c-0.1,0-0.1,0-0.2-0.1
		c-0.1,0-0.1,0-0.2-0.1c0,0-0.1,0-0.1-0.1c0,0,0,0,0,0c0,0-0.1,0-0.1-0.1c-0.1,0-0.2-0.1-0.2-0.1c0,0-0.1-0.1-0.1-0.1
		c0,0-0.1,0-0.1-0.1c0,0,0,0,0,0l-0.1-0.1c-0.1-0.1-0.2-0.1-0.3-0.2c0,0-0.1-0.1-0.1-0.1c0,0-0.1-0.1-0.1-0.1c0,0,0,0,0,0
		c0,0,0,0,0,0c0,0-0.1-0.1-0.1-0.1c0,0,0,0,0,0s0,0,0,0c-0.1-0.2-0.3-0.3-0.4-0.5c0,0-0.1-0.1-0.1-0.1c0,0,0-0.1-0.1-0.1
		c0,0,0-0.1-0.1-0.1c0-0.1-0.1-0.1-0.1-0.2c0,0,0-0.1,0-0.1c0-0.1-0.1-0.1-0.1-0.2c0-0.1,0-0.1-0.1-0.2c0-0.1-0.1-0.1-0.1-0.2
		c0-0.1,0-0.1-0.1-0.2c0,0,0,0,0-0.1c0-0.1-0.1-0.3-0.1-0.4c0,0,0,0,0-0.1c0,0,0-0.1,0-0.1c0-0.1,0-0.1,0-0.2c0-0.1,0-0.1,0-0.2
		c0,0,0-0.1,0-0.1c0,0,0,0,0-0.1c0,0,0-0.1,0-0.1l0-0.1c0-0.1,0-0.2,0-0.2c0,0,0-0.1,0-0.1c0,0,0-0.1,0-0.1c0-0.1,0-0.2,0-0.4
		c0,0,0,0,0-0.1c0-0.1-0.1-0.2-0.2-0.2c-1.8-0.4-3.4-1.1-5-2c-0.2-0.1-0.4-0.2-0.6-0.4c-0.1-0.1-0.1-0.2-0.1-0.3c0,0,0,0,0,0
		c0.1-0.1,0.2-0.1,0.3-0.1c2.4,0.8,4,0.9,6,0.9c0,0,0.1,0,0.1,0l0,0l0,0c0,0,0.1,0,0.1,0l0,0c0.1,0,0.1-0.1,0.1-0.1l0.7-1.8
		c0-0.1,0.1-0.1,0.2-0.1c0.8,0,1.5-0.1,2.3-0.2c3.6-0.5,7-2,9.8-4.3C-601.8-164.4-601.7-164.4-601.5-164.2
		C-601.6-164.3-601.5-164.3-601.5-164.2z"/>
	
		<linearGradient id="SVGID_58_" gradientUnits="userSpaceOnUse" x1="-1095.274" y1="-361.2795" x2="-1095.125" y2="-361.3621" gradientTransform="matrix(94.5025 -13.8136 -5.3089 -36.3198 100973.2031 -28418.6563)">
		<stop  offset="0" style="stop-color:#86E3CE"/>
		<stop  offset="0.431" style="stop-color:#86E3CE"/>
		<stop  offset="1" style="stop-color:#54D1B0"/>
	</linearGradient>
	<path class="st55" d="M-600.2-168.2l-0.9,2.3c0,0-0.1,0.1-0.1,0.1c-3.6,2.9-8.1,4.6-12.7,4.6c-0.5,0-1.1,0-1.6,0
		c-2.7-0.2-5.4-0.9-7.8-2.1c-0.3-0.1-0.6-0.3-0.8-0.4c-0.1-0.1-0.2-0.3-0.1-0.4c0.1-0.1,0.2-0.2,0.3-0.1c1.7,0.5,3.4,0.9,5.1,1
		c1.9,0.1,3.8,0,5.7-0.4l0,0l0,0c5.1-1.4,9.5-4.6,12.4-9c0.1,0.1,0.1,0.2,0.2,0.4C-599.8-171-599.7-169.5-600.2-168.2z"/>
	
		<linearGradient id="SVGID_59_" gradientUnits="userSpaceOnUse" x1="-1094.3988" y1="-355.8209" x2="-1094.28" y2="-355.8419" gradientTransform="matrix(77.3624 -11.3082 -7.0043 -47.9181 81561.9219 -29582.9551)">
		<stop  offset="0" style="stop-color:#FF6D4A"/>
		<stop  offset="1" style="stop-color:#CF411F"/>
	</linearGradient>
	<path class="st59" d="M-601.5-164.2c0,0,0,0.1,0,0.1l-1.3,3.3l-1.7,4.4l-1.1,3c-1,2.6-4,4-6.6,2.9c0,0,0,0,0,0
		c-0.1,0-0.1,0-0.2-0.1c-0.1,0-0.1,0-0.2-0.1c0,0-0.1,0-0.1-0.1c0,0,0,0,0,0c0,0-0.1,0-0.1-0.1c-0.1,0-0.2-0.1-0.2-0.1
		c0,0-0.1-0.1-0.1-0.1c0,0-0.1,0-0.1-0.1c0,0,0,0,0,0c0,0-0.1-0.1-0.1-0.1c-0.1-0.1-0.2-0.1-0.3-0.2c0,0-0.1-0.1-0.1-0.1
		c0,0-0.1-0.1-0.1-0.1c0,0,0,0,0,0c0,0,0,0,0,0c0,0-0.1-0.1-0.1-0.1c0,0,0,0,0,0c0,0,0,0,0,0c-0.1-0.2-0.3-0.3-0.4-0.5
		c0,0-0.1-0.1-0.1-0.1c0,0,0-0.1-0.1-0.1c0,0,0-0.1-0.1-0.1c0-0.1-0.1-0.1-0.1-0.2c0,0,0-0.1,0-0.1c0-0.1-0.1-0.1-0.1-0.2
		c0-0.1,0-0.1-0.1-0.2c0-0.1-0.1-0.1-0.1-0.2c0-0.1,0-0.1-0.1-0.2c0,0,0,0,0-0.1c0-0.1-0.1-0.3-0.1-0.4c0,0,0,0,0-0.1
		c0,0,0-0.1,0-0.1c0-0.1,0-0.1,0-0.2c0-0.1,0-0.1,0-0.2c0,0,0-0.1,0-0.1c0,0,0-0.1,0-0.1s0-0.1,0-0.1c0,0,0-0.1,0-0.1
		c0-0.1,0-0.2,0-0.2c0,0,0-0.1,0-0.1c0,0,0,0,0-0.1c0-0.1,0-0.2,0-0.4c0,0,0,0,0-0.1c0-0.1-0.1-0.2-0.2-0.2c-1.8-0.4-3.4-1.1-5-2
		l0,0c-0.2-0.1-0.4-0.2-0.6-0.4c-0.1-0.1-0.1-0.2-0.1-0.3c0.1-0.1,0.2-0.1,0.3-0.1c2.4,0.8,4,0.9,6,0.9c0,0,0.1,0,0.1,0l0,0l0,0
		c0,0,0.1,0,0.1,0l0,0c0.3,0,0.7-0.1,1-0.1C-609.3-158.7-604.9-160.9-601.5-164.2z"/>
</g>
</svg>
